<mxfile host="Electron" agent="Mozilla/5.0 (Windows NT 10.0; Win64; x64) AppleWebKit/537.36 (KHTML, like Gecko) draw.io/25.0.1 Chrome/128.0.6613.186 Electron/32.2.6 Safari/537.36" version="25.0.1">
  <diagram name="Page-1" id="XrV6WEHN9I4WSzHPdoaT">
    <mxGraphModel dx="418" dy="1502" grid="1" gridSize="3.937" guides="1" tooltips="1" connect="1" arrows="1" fold="1" page="1" pageScale="1" pageWidth="827" pageHeight="1169" math="0" shadow="0">
      <root>
        <mxCell id="0" />
        <mxCell id="1" parent="0" />
        <mxCell id="Fxfa2yIzksC5TbxXuu06-1" value="" style="group" parent="1" vertex="1" connectable="0">
          <mxGeometry x="465.6200000000002" y="-952.75" width="95" height="51" as="geometry" />
        </mxCell>
        <mxCell id="Fxfa2yIzksC5TbxXuu06-2" value="" style="endArrow=none;html=1;rounded=1;shadow=0;curved=0;strokeWidth=1.1811;" parent="Fxfa2yIzksC5TbxXuu06-1" edge="1">
          <mxGeometry width="50" height="50" relative="1" as="geometry">
            <mxPoint x="95" as="sourcePoint" />
            <mxPoint as="targetPoint" />
            <Array as="points">
              <mxPoint x="95" y="51" />
              <mxPoint x="48" y="51" />
              <mxPoint y="51" />
            </Array>
          </mxGeometry>
        </mxCell>
        <mxCell id="Fxfa2yIzksC5TbxXuu06-3" value="" style="endArrow=none;html=1;rounded=1;shadow=0;curved=0;strokeWidth=1.1811;" parent="Fxfa2yIzksC5TbxXuu06-1" edge="1">
          <mxGeometry width="50" height="50" relative="1" as="geometry">
            <mxPoint x="91" as="sourcePoint" />
            <mxPoint x="4" as="targetPoint" />
            <Array as="points">
              <mxPoint x="91" y="47" />
              <mxPoint x="4" y="47" />
            </Array>
          </mxGeometry>
        </mxCell>
        <mxCell id="Fxfa2yIzksC5TbxXuu06-4" value="" style="verticalLabelPosition=bottom;verticalAlign=top;html=1;shape=mxgraph.basic.arc;startAngle=0.6370645554213594;endAngle=0.3659153113244902;fillColor=#E6E6E6;" parent="Fxfa2yIzksC5TbxXuu06-1" vertex="1">
          <mxGeometry x="23.090000000000032" width="48.82" height="48.82" as="geometry" />
        </mxCell>
        <mxCell id="Fxfa2yIzksC5TbxXuu06-8" value="pasta madre" style="group;labelPosition=right;verticalLabelPosition=middle;align=left;verticalAlign=middle;" parent="1" vertex="1" connectable="0">
          <mxGeometry x="421.2600000000003" y="-540.24" width="64.59" height="46.12" as="geometry" />
        </mxCell>
        <mxCell id="Fxfa2yIzksC5TbxXuu06-9" value="" style="ellipse;whiteSpace=wrap;html=1;aspect=fixed;fillStyle=solid;fillColor=#E6E6E6;strokeColor=default;" parent="Fxfa2yIzksC5TbxXuu06-8" vertex="1">
          <mxGeometry x="13.522384357408868" y="0.831829177600935" width="31.538547018044728" height="31.538547018044728" as="geometry" />
        </mxCell>
        <mxCell id="Fxfa2yIzksC5TbxXuu06-10" value="" style="verticalLabelPosition=bottom;verticalAlign=top;html=1;shape=mxgraph.basic.arc;startAngle=0.08689626022677688;endAngle=0.2050773360672707;" parent="Fxfa2yIzksC5TbxXuu06-8" vertex="1">
          <mxGeometry width="42.724753103977456" height="39.42318377255591" as="geometry" />
        </mxCell>
        <mxCell id="Fxfa2yIzksC5TbxXuu06-11" value="" style="verticalLabelPosition=bottom;verticalAlign=top;html=1;shape=mxgraph.basic.arc;startAngle=0.9043001817170615;endAngle=0.9910681000229217;" parent="Fxfa2yIzksC5TbxXuu06-8" vertex="1">
          <mxGeometry x="21.86524689602254" y="6.6968162274440814" width="42.724753103977456" height="39.42318377255591" as="geometry" />
        </mxCell>
        <mxCell id="Fxfa2yIzksC5TbxXuu06-12" value="" style="group" parent="1" vertex="1" connectable="0">
          <mxGeometry x="492.12700000000024" y="-712.5930000000001" width="56.00999999999999" height="33.22999999999999" as="geometry" />
        </mxCell>
        <mxCell id="Fxfa2yIzksC5TbxXuu06-13" value="" style="group;fillColor=none;container=0;fillStyle=dots;" parent="Fxfa2yIzksC5TbxXuu06-12" vertex="1" connectable="0">
          <mxGeometry width="56.01" height="33.23" as="geometry" />
        </mxCell>
        <mxCell id="Fxfa2yIzksC5TbxXuu06-14" value="" style="verticalLabelPosition=bottom;verticalAlign=top;html=1;shape=mxgraph.basic.arc;startAngle=0.5228132783035719;endAngle=0.931180165086578;fillStyle=auto;fillColor=#66FFB3;" parent="Fxfa2yIzksC5TbxXuu06-12" vertex="1">
          <mxGeometry y="10.029958878139894" width="23.170383608225663" height="23.16066798628343" as="geometry" />
        </mxCell>
        <mxCell id="Fxfa2yIzksC5TbxXuu06-15" value="" style="verticalLabelPosition=bottom;verticalAlign=top;html=1;shape=mxgraph.basic.arc;startAngle=0.7768001258780505;endAngle=0.08146438747349113;" parent="Fxfa2yIzksC5TbxXuu06-12" vertex="1">
          <mxGeometry x="6.389999999999986" y="1.8200000000000216" width="25.11" height="23.16" as="geometry" />
        </mxCell>
        <mxCell id="Fxfa2yIzksC5TbxXuu06-16" value="" style="verticalLabelPosition=bottom;verticalAlign=top;html=1;shape=mxgraph.basic.arc;startAngle=0.8805625920328525;endAngle=0.23557103081184777;fillColor=#97D077;" parent="Fxfa2yIzksC5TbxXuu06-12" vertex="1">
          <mxGeometry x="20.981709172592673" width="23.170383608225663" height="23.16066798628343" as="geometry" />
        </mxCell>
        <mxCell id="Fxfa2yIzksC5TbxXuu06-17" value="" style="verticalLabelPosition=bottom;verticalAlign=top;html=1;shape=mxgraph.basic.arc;startAngle=0.9911671385559326;endAngle=0.5054236362483322;" parent="Fxfa2yIzksC5TbxXuu06-12" vertex="1">
          <mxGeometry x="32.839616391774314" y="10.03019048481977" width="23.170383608225663" height="23.16066798628343" as="geometry" />
        </mxCell>
        <mxCell id="Fxfa2yIzksC5TbxXuu06-18" value="" style="endArrow=none;html=1;rounded=0;" parent="Fxfa2yIzksC5TbxXuu06-12" edge="1">
          <mxGeometry width="50" height="50" relative="1" as="geometry">
            <mxPoint x="9.863875299403048" y="33.150000000000034" as="sourcePoint" />
            <mxPoint x="44.156043039577014" y="33.150000000000034" as="targetPoint" />
          </mxGeometry>
        </mxCell>
        <mxCell id="Fxfa2yIzksC5TbxXuu06-19" value="" style="group" parent="1" vertex="1" connectable="0">
          <mxGeometry x="440.9399999999999" y="-807.08" width="56.00999999999999" height="33.22999999999996" as="geometry" />
        </mxCell>
        <mxCell id="Fxfa2yIzksC5TbxXuu06-20" value="" style="group" parent="Fxfa2yIzksC5TbxXuu06-19" vertex="1" connectable="0">
          <mxGeometry width="56.00999999999999" height="33.22999999999999" as="geometry" />
        </mxCell>
        <mxCell id="Fxfa2yIzksC5TbxXuu06-21" value="" style="group;fillColor=none;container=0;fillStyle=dots;" parent="Fxfa2yIzksC5TbxXuu06-20" vertex="1" connectable="0">
          <mxGeometry width="56.01" height="33.23" as="geometry" />
        </mxCell>
        <mxCell id="Fxfa2yIzksC5TbxXuu06-22" value="" style="verticalLabelPosition=bottom;verticalAlign=top;html=1;shape=mxgraph.basic.arc;startAngle=0.5228132783035719;endAngle=0.931180165086578;fillStyle=auto;fillColor=#66FFB3;" parent="Fxfa2yIzksC5TbxXuu06-20" vertex="1">
          <mxGeometry y="10.029958878139894" width="23.170383608225663" height="23.16066798628343" as="geometry" />
        </mxCell>
        <mxCell id="Fxfa2yIzksC5TbxXuu06-23" value="" style="verticalLabelPosition=bottom;verticalAlign=top;html=1;shape=mxgraph.basic.arc;startAngle=0.7768001258780505;endAngle=0.08146438747349113;" parent="Fxfa2yIzksC5TbxXuu06-20" vertex="1">
          <mxGeometry x="6.389999999999986" y="1.8200000000000216" width="25.11" height="23.16" as="geometry" />
        </mxCell>
        <mxCell id="Fxfa2yIzksC5TbxXuu06-24" value="" style="verticalLabelPosition=bottom;verticalAlign=top;html=1;shape=mxgraph.basic.arc;startAngle=0.8805625920328525;endAngle=0.23557103081184777;fillColor=#97D077;" parent="Fxfa2yIzksC5TbxXuu06-20" vertex="1">
          <mxGeometry x="20.981709172592673" width="23.170383608225663" height="23.16066798628343" as="geometry" />
        </mxCell>
        <mxCell id="Fxfa2yIzksC5TbxXuu06-25" value="" style="verticalLabelPosition=bottom;verticalAlign=top;html=1;shape=mxgraph.basic.arc;startAngle=0.9911671385559326;endAngle=0.5054236362483322;" parent="Fxfa2yIzksC5TbxXuu06-20" vertex="1">
          <mxGeometry x="32.839616391774314" y="10.03019048481977" width="23.170383608225663" height="23.16066798628343" as="geometry" />
        </mxCell>
        <mxCell id="Fxfa2yIzksC5TbxXuu06-26" value="" style="endArrow=none;html=1;rounded=0;" parent="Fxfa2yIzksC5TbxXuu06-20" edge="1">
          <mxGeometry width="50" height="50" relative="1" as="geometry">
            <mxPoint x="9.863875299403048" y="33.150000000000034" as="sourcePoint" />
            <mxPoint x="44.156043039577014" y="33.150000000000034" as="targetPoint" />
          </mxGeometry>
        </mxCell>
        <mxCell id="Fxfa2yIzksC5TbxXuu06-27" value="" style="group" parent="Fxfa2yIzksC5TbxXuu06-19" vertex="1" connectable="0">
          <mxGeometry x="8.740000000000009" y="7.755000000000109" width="39.37500000000017" height="22.93199999999996" as="geometry" />
        </mxCell>
        <mxCell id="Fxfa2yIzksC5TbxXuu06-28" value="" style="ellipse;whiteSpace=wrap;html=1;fillStyle=auto;strokeColor=none;align=center;verticalAlign=middle;fontFamily=Helvetica;fontSize=12;fontColor=default;fillColor=#999999;" parent="Fxfa2yIzksC5TbxXuu06-27" vertex="1">
          <mxGeometry y="10.784999999999968" width="3.95" height="4.09" as="geometry" />
        </mxCell>
        <mxCell id="Fxfa2yIzksC5TbxXuu06-29" value="" style="ellipse;whiteSpace=wrap;html=1;fillStyle=auto;strokeColor=none;align=center;verticalAlign=middle;fontFamily=Helvetica;fontSize=12;fontColor=default;fillColor=#999999;" parent="Fxfa2yIzksC5TbxXuu06-27" vertex="1">
          <mxGeometry x="7.867000000000019" y="18.841999999999985" width="3.95" height="4.09" as="geometry" />
        </mxCell>
        <mxCell id="Fxfa2yIzksC5TbxXuu06-30" value="" style="ellipse;whiteSpace=wrap;html=1;fillStyle=auto;strokeColor=none;align=center;verticalAlign=middle;fontFamily=Helvetica;fontSize=12;fontColor=default;fillColor=#999999;" parent="Fxfa2yIzksC5TbxXuu06-27" vertex="1">
          <mxGeometry x="15.744000000000085" y="7.868999999999971" width="3.95" height="4.09" as="geometry" />
        </mxCell>
        <mxCell id="Fxfa2yIzksC5TbxXuu06-31" value="" style="ellipse;whiteSpace=wrap;html=1;fillStyle=auto;strokeColor=none;align=center;verticalAlign=middle;fontFamily=Helvetica;fontSize=12;fontColor=default;fillColor=#999999;" parent="Fxfa2yIzksC5TbxXuu06-27" vertex="1">
          <mxGeometry x="23.62100000000015" y="14.875999999999976" width="3.95" height="4.09" as="geometry" />
        </mxCell>
        <mxCell id="Fxfa2yIzksC5TbxXuu06-32" value="" style="ellipse;whiteSpace=wrap;html=1;fillStyle=auto;strokeColor=none;align=center;verticalAlign=middle;fontFamily=Helvetica;fontSize=12;fontColor=default;fillColor=#999999;" parent="Fxfa2yIzksC5TbxXuu06-27" vertex="1">
          <mxGeometry x="27.568000000000154" y="3.782999999999987" width="3.95" height="4.09" as="geometry" />
        </mxCell>
        <mxCell id="Fxfa2yIzksC5TbxXuu06-33" value="" style="ellipse;whiteSpace=wrap;html=1;fillStyle=auto;strokeColor=none;align=center;verticalAlign=middle;fontFamily=Helvetica;fontSize=12;fontColor=default;fillColor=#999999;" parent="Fxfa2yIzksC5TbxXuu06-27" vertex="1">
          <mxGeometry x="7.865000000000123" width="3.95" height="4.09" as="geometry" />
        </mxCell>
        <mxCell id="Fxfa2yIzksC5TbxXuu06-34" value="" style="ellipse;whiteSpace=wrap;html=1;fillStyle=auto;strokeColor=none;align=center;verticalAlign=middle;fontFamily=Helvetica;fontSize=12;fontColor=default;fillColor=#999999;" parent="Fxfa2yIzksC5TbxXuu06-27" vertex="1">
          <mxGeometry x="35.425000000000125" y="11.95999999999998" width="3.95" height="4.09" as="geometry" />
        </mxCell>
        <mxCell id="Fxfa2yIzksC5TbxXuu06-51" value="" style="group" parent="1" vertex="1" connectable="0">
          <mxGeometry x="476.3709999999999" y="-610.233" width="77.70599999999999" height="22.744000000000028" as="geometry" />
        </mxCell>
        <mxCell id="Fxfa2yIzksC5TbxXuu06-52" value="" style="group" parent="Fxfa2yIzksC5TbxXuu06-51" vertex="1" connectable="0">
          <mxGeometry x="0.12600000000000477" width="77.57999999999998" height="8.870000000000005" as="geometry" />
        </mxCell>
        <mxCell id="Fxfa2yIzksC5TbxXuu06-53" value="" style="pointerEvents=1;verticalLabelPosition=bottom;shadow=0;dashed=0;align=center;html=1;verticalAlign=top;shape=mxgraph.electrical.waveforms.sine_wave;fillStyle=dots;strokeColor=default;fontFamily=Helvetica;fontSize=12;fontColor=default;fillColor=#FF0000;" parent="Fxfa2yIzksC5TbxXuu06-52" vertex="1">
          <mxGeometry y="0.47999999999996135" width="19.68" height="7.87" as="geometry" />
        </mxCell>
        <mxCell id="Fxfa2yIzksC5TbxXuu06-54" value="" style="pointerEvents=1;verticalLabelPosition=bottom;shadow=0;dashed=0;align=center;html=1;verticalAlign=top;shape=mxgraph.electrical.waveforms.sine_wave;fillStyle=dots;strokeColor=default;fontFamily=Helvetica;fontSize=12;fontColor=default;fillColor=#FF0000;" parent="Fxfa2yIzksC5TbxXuu06-52" vertex="1">
          <mxGeometry x="39.359999999999985" width="19.78" height="8.87" as="geometry" />
        </mxCell>
        <mxCell id="Fxfa2yIzksC5TbxXuu06-55" value="" style="pointerEvents=1;verticalLabelPosition=bottom;shadow=0;dashed=0;align=center;html=1;verticalAlign=top;shape=mxgraph.electrical.waveforms.sine_wave;fillStyle=dots;strokeColor=default;fontFamily=Helvetica;fontSize=12;fontColor=default;fillColor=#FF0000;" parent="Fxfa2yIzksC5TbxXuu06-52" vertex="1">
          <mxGeometry x="19.679999999999993" y="0.47999999999996135" width="19.74" height="7.9" as="geometry" />
        </mxCell>
        <mxCell id="Fxfa2yIzksC5TbxXuu06-56" value="" style="pointerEvents=1;verticalLabelPosition=bottom;shadow=0;dashed=0;align=center;html=1;verticalAlign=top;shape=mxgraph.electrical.waveforms.sine_wave;fillStyle=dots;strokeColor=default;fontFamily=Helvetica;fontSize=12;fontColor=default;fillColor=#FF0000;" parent="Fxfa2yIzksC5TbxXuu06-52" vertex="1">
          <mxGeometry x="59.04999999999998" y="1" width="18.53" height="6.9" as="geometry" />
        </mxCell>
        <mxCell id="Fxfa2yIzksC5TbxXuu06-57" value="" style="group" parent="Fxfa2yIzksC5TbxXuu06-51" vertex="1" connectable="0">
          <mxGeometry x="0.06300000000000239" y="6.937000000000012" width="77.57999999999998" height="8.870000000000005" as="geometry" />
        </mxCell>
        <mxCell id="Fxfa2yIzksC5TbxXuu06-58" value="" style="pointerEvents=1;verticalLabelPosition=bottom;shadow=0;dashed=0;align=center;html=1;verticalAlign=top;shape=mxgraph.electrical.waveforms.sine_wave;fillStyle=dots;strokeColor=default;fontFamily=Helvetica;fontSize=12;fontColor=default;fillColor=#FF0000;" parent="Fxfa2yIzksC5TbxXuu06-57" vertex="1">
          <mxGeometry y="0.47999999999996135" width="19.68" height="7.87" as="geometry" />
        </mxCell>
        <mxCell id="Fxfa2yIzksC5TbxXuu06-59" value="" style="pointerEvents=1;verticalLabelPosition=bottom;shadow=0;dashed=0;align=center;html=1;verticalAlign=top;shape=mxgraph.electrical.waveforms.sine_wave;fillStyle=dots;strokeColor=default;fontFamily=Helvetica;fontSize=12;fontColor=default;fillColor=#FF0000;" parent="Fxfa2yIzksC5TbxXuu06-57" vertex="1">
          <mxGeometry x="39.359999999999985" width="19.78" height="8.87" as="geometry" />
        </mxCell>
        <mxCell id="Fxfa2yIzksC5TbxXuu06-60" value="" style="pointerEvents=1;verticalLabelPosition=bottom;shadow=0;dashed=0;align=center;html=1;verticalAlign=top;shape=mxgraph.electrical.waveforms.sine_wave;fillStyle=dots;strokeColor=default;fontFamily=Helvetica;fontSize=12;fontColor=default;fillColor=#FF0000;" parent="Fxfa2yIzksC5TbxXuu06-57" vertex="1">
          <mxGeometry x="19.679999999999993" y="0.47999999999996135" width="19.74" height="7.9" as="geometry" />
        </mxCell>
        <mxCell id="Fxfa2yIzksC5TbxXuu06-61" value="" style="pointerEvents=1;verticalLabelPosition=bottom;shadow=0;dashed=0;align=center;html=1;verticalAlign=top;shape=mxgraph.electrical.waveforms.sine_wave;fillStyle=dots;strokeColor=default;fontFamily=Helvetica;fontSize=12;fontColor=default;fillColor=#FF0000;" parent="Fxfa2yIzksC5TbxXuu06-57" vertex="1">
          <mxGeometry x="59.04999999999998" y="1" width="18.53" height="6.9" as="geometry" />
        </mxCell>
        <mxCell id="Fxfa2yIzksC5TbxXuu06-62" value="" style="group" parent="Fxfa2yIzksC5TbxXuu06-51" vertex="1" connectable="0">
          <mxGeometry y="13.874000000000024" width="77.57999999999998" height="8.870000000000005" as="geometry" />
        </mxCell>
        <mxCell id="Fxfa2yIzksC5TbxXuu06-63" value="" style="pointerEvents=1;verticalLabelPosition=bottom;shadow=0;dashed=0;align=center;html=1;verticalAlign=top;shape=mxgraph.electrical.waveforms.sine_wave;fillStyle=dots;strokeColor=default;fontFamily=Helvetica;fontSize=12;fontColor=default;fillColor=#FF0000;" parent="Fxfa2yIzksC5TbxXuu06-62" vertex="1">
          <mxGeometry y="0.47999999999996135" width="19.68" height="7.87" as="geometry" />
        </mxCell>
        <mxCell id="Fxfa2yIzksC5TbxXuu06-64" value="" style="pointerEvents=1;verticalLabelPosition=bottom;shadow=0;dashed=0;align=center;html=1;verticalAlign=top;shape=mxgraph.electrical.waveforms.sine_wave;fillStyle=dots;strokeColor=default;fontFamily=Helvetica;fontSize=12;fontColor=default;fillColor=#FF0000;" parent="Fxfa2yIzksC5TbxXuu06-62" vertex="1">
          <mxGeometry x="39.359999999999985" width="19.78" height="8.87" as="geometry" />
        </mxCell>
        <mxCell id="Fxfa2yIzksC5TbxXuu06-65" value="" style="pointerEvents=1;verticalLabelPosition=bottom;shadow=0;dashed=0;align=center;html=1;verticalAlign=top;shape=mxgraph.electrical.waveforms.sine_wave;fillStyle=dots;strokeColor=default;fontFamily=Helvetica;fontSize=12;fontColor=default;fillColor=#FF0000;" parent="Fxfa2yIzksC5TbxXuu06-62" vertex="1">
          <mxGeometry x="19.679999999999993" y="0.47999999999996135" width="19.74" height="7.9" as="geometry" />
        </mxCell>
        <mxCell id="Fxfa2yIzksC5TbxXuu06-66" value="" style="pointerEvents=1;verticalLabelPosition=bottom;shadow=0;dashed=0;align=center;html=1;verticalAlign=top;shape=mxgraph.electrical.waveforms.sine_wave;fillStyle=dots;strokeColor=default;fontFamily=Helvetica;fontSize=12;fontColor=default;fillColor=#FF0000;" parent="Fxfa2yIzksC5TbxXuu06-62" vertex="1">
          <mxGeometry x="59.04999999999998" y="1" width="18.53" height="6.9" as="geometry" />
        </mxCell>
        <mxCell id="Fxfa2yIzksC5TbxXuu06-67" value="" style="endArrow=classic;html=1;rounded=1;fontFamily=Helvetica;fontSize=12;fontColor=default;curved=0;" parent="1" edge="1">
          <mxGeometry width="50" height="50" relative="1" as="geometry">
            <mxPoint x="425.4500000000001" y="-701.5799999999999" as="sourcePoint" />
            <mxPoint x="425.18799999999993" y="-649.6020000000001" as="targetPoint" />
            <Array as="points">
              <mxPoint x="425.18799999999993" y="-701.6020000000001" />
            </Array>
          </mxGeometry>
        </mxCell>
        <mxCell id="Fxfa2yIzksC5TbxXuu06-68" value="" style="group" parent="1" vertex="1" connectable="0">
          <mxGeometry x="464.56699999999984" y="-468.493" width="102.71700000000004" height="86.54999999999995" as="geometry" />
        </mxCell>
        <mxCell id="Fxfa2yIzksC5TbxXuu06-69" value="" style="endArrow=none;html=1;rounded=0;fontFamily=Helvetica;fontSize=12;fontColor=default;curved=0;strokeWidth=1.1810999999999998;" parent="Fxfa2yIzksC5TbxXuu06-68" edge="1">
          <mxGeometry width="50" height="50" relative="1" as="geometry">
            <mxPoint x="10.810000000000002" y="81.93999999999994" as="sourcePoint" />
            <mxPoint x="10.810000000000002" y="3.9399999999999977" as="targetPoint" />
          </mxGeometry>
        </mxCell>
        <mxCell id="Fxfa2yIzksC5TbxXuu06-70" value="" style="endArrow=none;html=1;rounded=0;fontFamily=Helvetica;fontSize=12;fontColor=default;curved=0;strokeWidth=3.1496;" parent="Fxfa2yIzksC5TbxXuu06-68" edge="1">
          <mxGeometry width="50" height="50" relative="1" as="geometry">
            <mxPoint x="10.727000000000032" y="82.43700000000001" as="sourcePoint" />
            <mxPoint x="43.79000000000002" y="55.5" as="targetPoint" />
          </mxGeometry>
        </mxCell>
        <mxCell id="Fxfa2yIzksC5TbxXuu06-71" value="" style="endArrow=none;html=1;rounded=0;fontFamily=Helvetica;fontSize=12;fontColor=default;curved=0;strokeWidth=3.1496;" parent="Fxfa2yIzksC5TbxXuu06-68" edge="1">
          <mxGeometry width="50" height="50" relative="1" as="geometry">
            <mxPoint x="42.28400000000005" y="56.624000000000024" as="sourcePoint" />
            <mxPoint x="11.79000000000002" y="19.5" as="targetPoint" />
          </mxGeometry>
        </mxCell>
        <mxCell id="Fxfa2yIzksC5TbxXuu06-72" value="" style="endArrow=none;html=1;rounded=0;fontFamily=Helvetica;fontSize=12;fontColor=default;curved=0;strokeWidth=3.1496;" parent="Fxfa2yIzksC5TbxXuu06-68" edge="1">
          <mxGeometry width="50" height="50" relative="1" as="geometry">
            <mxPoint x="27.79000000000002" y="70.5" as="sourcePoint" />
            <mxPoint x="11.79000000000002" y="51.5" as="targetPoint" />
          </mxGeometry>
        </mxCell>
        <mxCell id="Fxfa2yIzksC5TbxXuu06-73" value="" style="endArrow=none;html=1;rounded=0;fontFamily=Helvetica;fontSize=12;fontColor=default;curved=0;strokeWidth=1.1810999999999998;" parent="Fxfa2yIzksC5TbxXuu06-68" edge="1">
          <mxGeometry width="50" height="50" relative="1" as="geometry">
            <mxPoint x="7.747000000000014" y="81.87699999999995" as="sourcePoint" />
            <mxPoint x="7.747000000000014" y="3.8770000000000095" as="targetPoint" />
          </mxGeometry>
        </mxCell>
        <mxCell id="Fxfa2yIzksC5TbxXuu06-74" value="" style="rounded=1;whiteSpace=wrap;html=1;fillStyle=auto;strokeColor=default;align=center;verticalAlign=middle;fontFamily=Helvetica;fontSize=12;fontColor=default;fillColor=#FFFFFF;gradientColor=none;" parent="Fxfa2yIzksC5TbxXuu06-68" vertex="1">
          <mxGeometry width="19.69" height="3.94" as="geometry" />
        </mxCell>
        <mxCell id="Fxfa2yIzksC5TbxXuu06-75" value="" style="ellipse;whiteSpace=wrap;html=1;aspect=fixed;fillStyle=auto;strokeColor=default;align=center;verticalAlign=middle;fontFamily=Helvetica;fontSize=12;fontColor=default;fillColor=#FFFFFF;" parent="Fxfa2yIzksC5TbxXuu06-68" vertex="1">
          <mxGeometry x="7.720000000000027" y="78.67999999999995" width="7.87" height="7.87" as="geometry" />
        </mxCell>
        <mxCell id="Fxfa2yIzksC5TbxXuu06-76" value="Frusta K" style="text;html=1;align=center;verticalAlign=middle;resizable=0;points=[];autosize=1;strokeColor=none;fillColor=none;fontFamily=Helvetica;fontSize=12;fontColor=default;" parent="Fxfa2yIzksC5TbxXuu06-68" vertex="1">
          <mxGeometry x="35.78800000000007" y="35.43100000000004" width="66.929" height="27.558999999999997" as="geometry" />
        </mxCell>
        <mxCell id="Fxfa2yIzksC5TbxXuu06-77" value="piegature" style="shape=image;verticalLabelPosition=middle;labelBackgroundColor=default;verticalAlign=middle;aspect=fixed;imageAspect=0;image=data:image/svg+xml,PHN2ZyB4bWxucz0iaHR0cDovL3d3dy53My5vcmcvMjAwMC9zdmciIHk9IjBweCIgeD0iMHB4IiB2aWV3Qm94PSIwIDAgNjAgNzUiPjxnPjxwYXRoIGQ9Ik00OC45NSwzNi41M2wxLjMyLTIuMDNjMS45OC0zLjA3LDIuMjktNi44MSwuODktMTAuMTNsOC4xNy0xMi42M2MuNjEtLjk0LC44Mi0yLjA3LC41OS0zLjE3LS4yNC0xLjEtLjg5LTIuMDQtMS44My0yLjY2TDQ5Ljk5LC42OGMtLjk0LS42MS0yLjA3LS44Mi0zLjE3LS41OS0xLjEsLjI0LTIuMDQsLjg5LTIuNjUsMS44M2wtNy44NCwxMi4xMWMtMi4yMi0uMTktNC40NywuMy02LjM4LDEuNDFMMTMuMTUsMjQuNjRjLTEuNzQsMS4wMy0yLjQ1LDMuMjEtMS42NSw1LjA2LC4zMSwuNzMsLjgzLDEuMzUsMS41LDEuNzgsLjA2LC4wNCwuMTIsLjA2LC4xOCwuMUM0LjU3LDM3LjE2LDAsNDcuMTcsMCw1M2MwLDEuODgsLjczLDMuNjQsMi4wNSw0Ljk0LDEuMzEsMS4zMywzLjA3LDIuMDYsNC45NSwyLjA2SDUzYzMuODYsMCw3LTMuMTQsNy03LDAtNi42Mi00LjAyLTEyLjU3LTExLjA1LTE2LjQ3Wm0tMTkuNzctMy4wMWMuMy0uNDYsLjE3LTEuMDgtLjMtMS4zOC0uNDYtLjMtMS4wOC0uMTctMS4zOCwuMywwLDAtOS4wNywxNC4wMS05LjA4LDE0LjAyLS4zLC40NS0uNzYsLjc3LTEuMjgsLjg5LS41MywuMTEtMS4wOSwwLTEuNTQtLjI3LS45NC0uNjItMS4yMi0xLjg5LS42MS0yLjgzbDEwLjg0LTE2Ljc1Yy4yNC0uMzcsLjIxLS44Ni0uMDgtMS4yLS4yOS0uMzQtLjc3LS40NC0xLjE3LS4yNiwwLDAtOC40NSwzLjg1LTguNDgsMy44Ni0uNjUsLjMzLTEuNDEsLjI5LTIuMDItLjExLS4zMy0uMjEtLjU5LS41Mi0uNzQtLjg5LS40LS45NC0uMDUtMi4wMywuOC0yLjU0bDE2Ljc4LTkuMTljMS43My0xLDMuNzctMS4zOSw1Ljc1LTEuMSwuMzksLjA2LC43Ny0uMTIsLjk4LS40NUw0NS44NCwzLjAxYy4zMi0uNSwuODEtLjg0LDEuMzktLjk2LC41OC0uMTIsMS4xNy0uMDEsMS42NiwuMzFsOC4wOSw1LjIzYy41LC4zMiwuODQsLjgyLC45NiwxLjRzLjAxLDEuMTctLjMxLDEuNjdsLTguNDcsMTMuMDljLS4xOSwuMjktLjIxLC42Ny0uMDYsLjk4LDEuMzcsMi44MSwxLjE3LDYuMDYtLjUzLDguNjlsLTEyLjM4LDE5LjEzYy0uNiwuOTMtMS44OSwxLjItMi44MiwuNi0uOTUtLjYxLTEuMTktMS44OS0uNi0yLjgzbDYuNTktMTAuMTljLjMtLjQ2LC4xNy0xLjA4LS4zLTEuMzgtLjQ2LS4zLTEuMDgtLjE3LTEuMzgsLjNsLTkuMDgsMTQuMDNjLS42LC45Mi0xLjg5LDEuMTktMi44MSwuNi0uOTQtLjYxLTEuMjEtMS44Ni0uNi0yLjgybDkuMDgtMTQuMDNjLjMtLjQ2LC4xNy0xLjA4LS4zLTEuMzgtLjQ2LS4zLTEuMDgtLjE3LTEuMzgsLjNsLTExLjE0LDE3LjIxYy0uNTksLjkyLTEuOSwxLjIxLTIuODEsLjYxLS45NS0uNjItMS4yMi0xLjg4LS42MS0yLjgybDExLjE0LTE3LjIxWm0yMy44MiwyNC40N0g3Yy0xLjM0LDAtMi41OS0uNTItMy41NC0xLjQ3LS45NC0uOTQtMS40Ni0yLjE5LTEuNDYtMy41MywwLTUuNzksNS4zNC0xNi43MSwxNC45OS0yMS4zaDBsNS4zMS0yLjQyLTguOTgsMTMuODhjLTEuMjEsMS44Ny0uNjcsNC4zNywxLjIxLDUuNiwuNiwuMzgsMS4zLC41OSwyLC42MmwtLjE3LC4yNmMtMS4yMSwxLjg2LS42OCw0LjM2LDEuMTksNS41OCwuODksLjU5LDEuOTcsLjc5LDMuMDQsLjU2LDEuMDYtLjIzLDEuOTYtLjg2LDIuNTQtMS43NWwuMTctLjI2Yy4zMSwuNjIsLjc5LDEuMTcsMS40MSwxLjU3LC42NywuNDMsMS40MiwuNjUsMi4xOCwuNjUsLjI5LDAsLjU3LS4wMywuODYtLjA5LDEuMDctLjIyLDEuOTctLjg1LDIuNTQtMS43NWwuNTgtLjljLjMyLC42MywuOCwxLjE4LDEuNDIsMS41NywuOSwuNTgsMS45OCwuNzgsMy4wNSwuNTUsMS4wNC0uMjQsMS45Ny0uODgsMi41My0xLjc1bDkuOTgtMTUuNDFjNi40NiwzLjU0LDEwLjE0LDguODgsMTAuMTQsMTQuNzgsMCwyLjc2LTIuMjQsNS01LDVaIi8+PC9nPjx0ZXh0IGZvbnQtZmFtaWx5PSInSGVsdmV0aWNhIE5ldWUnLCBIZWx2ZXRpY2EsIEFyaWFsLVVuaWNvZGUsIEFyaWFsLCBTYW5zLXNlcmlmIiBmb250LXdlaWdodD0iYm9sZCIgZm9udC1zaXplPSI1cHgiIGZpbGw9IiMwMDAwMDAiIHk9Ijc1IiB4PSIwIj5DcmVhdGVkIGJ5IEp1aWN5IEZpc2g8L3RleHQ+PHRleHQgZm9udC1mYW1pbHk9IidIZWx2ZXRpY2EgTmV1ZScsIEhlbHZldGljYSwgQXJpYWwtVW5pY29kZSwgQXJpYWwsIFNhbnMtc2VyaWYiIGZvbnQtd2VpZ2h0PSJib2xkIiBmb250LXNpemU9IjVweCIgZmlsbD0iIzAwMDAwMCIgeT0iODAiIHg9IjAiPmZyb20gdGhlIE5vdW4gUHJvamVjdDwvdGV4dD48L3N2Zz4=;clipPath=inset(0% 0% 18.67% 0%);labelPosition=right;align=left;" parent="1" vertex="1">
          <mxGeometry x="464.56699999999984" y="-224.40299999999996" width="30.77" height="31.28" as="geometry" />
        </mxCell>
        <mxCell id="Fxfa2yIzksC5TbxXuu06-78" value="" style="group" parent="1" vertex="1" connectable="0">
          <mxGeometry x="400.4170000000002" y="-322.82300000000004" width="69.76999999999998" height="70.88999999999999" as="geometry" />
        </mxCell>
        <mxCell id="Fxfa2yIzksC5TbxXuu06-79" value="" style="verticalLabelPosition=bottom;verticalAlign=top;html=1;shape=mxgraph.basic.arc;startAngle=0.2547732166712652;endAngle=0.7452267833287348;fillStyle=dots;strokeColor=default;align=center;fontFamily=Helvetica;fontSize=12;fontColor=default;fillColor=#FF0000;" parent="Fxfa2yIzksC5TbxXuu06-78" vertex="1">
          <mxGeometry width="69.77" height="70.89" as="geometry" />
        </mxCell>
        <mxCell id="Fxfa2yIzksC5TbxXuu06-80" value="" style="ellipse;whiteSpace=wrap;html=1;aspect=fixed;fillStyle=auto;strokeColor=default;align=center;verticalAlign=middle;fontFamily=Helvetica;fontSize=12;fontColor=default;fillColor=#FF0000;" parent="Fxfa2yIzksC5TbxXuu06-78" vertex="1">
          <mxGeometry x="19.16999999999996" y="40.42000000000007" width="9.81" height="9.81" as="geometry" />
        </mxCell>
        <mxCell id="Fxfa2yIzksC5TbxXuu06-81" value="" style="ellipse;whiteSpace=wrap;html=1;aspect=fixed;fillStyle=auto;strokeColor=default;align=center;verticalAlign=middle;fontFamily=Helvetica;fontSize=12;fontColor=default;fillColor=#FF0000;" parent="Fxfa2yIzksC5TbxXuu06-78" vertex="1">
          <mxGeometry x="40.789999999999964" y="34.48000000000002" width="9.81" height="9.81" as="geometry" />
        </mxCell>
        <mxCell id="Fxfa2yIzksC5TbxXuu06-82" value="tuorli&lt;div&gt;&lt;br&gt;&lt;/div&gt;&lt;div&gt;&lt;br&gt;&lt;/div&gt;" style="verticalLabelPosition=middle;verticalAlign=middle;html=1;shape=mxgraph.basic.arc;startAngle=0.2547732166712652;endAngle=0.7452267833287348;fillStyle=dots;strokeColor=default;align=center;fontFamily=Helvetica;fontSize=12;fontColor=default;fillColor=#FF0000;labelPosition=center;" parent="Fxfa2yIzksC5TbxXuu06-78" vertex="1">
          <mxGeometry x="3.94" y="5.92" width="62.99" height="61.01" as="geometry" />
        </mxCell>
        <mxCell id="Fxfa2yIzksC5TbxXuu06-83" value="" style="ellipse;whiteSpace=wrap;html=1;aspect=fixed;fillStyle=auto;strokeColor=default;align=center;verticalAlign=middle;fontFamily=Helvetica;fontSize=12;fontColor=default;fillColor=#FF0000;" parent="Fxfa2yIzksC5TbxXuu06-78" vertex="1">
          <mxGeometry x="32.42700000000002" y="50.22700000000009" width="9.81" height="9.81" as="geometry" />
        </mxCell>
        <mxCell id="Fxfa2yIzksC5TbxXuu06-84" value="" style="shape=curlyBracket;whiteSpace=wrap;html=1;rounded=1;labelPosition=left;verticalLabelPosition=middle;align=right;verticalAlign=middle;fillStyle=dots;strokeColor=default;fontFamily=Helvetica;fontSize=12;fontColor=default;fillColor=#FF0000;" parent="1" vertex="1">
          <mxGeometry x="212.59999999999997" y="-714.0600000000001" width="43.62" height="393.76" as="geometry" />
        </mxCell>
        <mxCell id="Fxfa2yIzksC5TbxXuu06-85" value="" style="group" parent="1" vertex="1" connectable="0">
          <mxGeometry x="370.0800000000002" y="-452.74600000000004" width="82.55699999999979" height="47.266000000000076" as="geometry" />
        </mxCell>
        <mxCell id="Fxfa2yIzksC5TbxXuu06-86" value="" style="rounded=1;whiteSpace=wrap;html=1;fillStyle=auto;strokeColor=default;align=center;verticalAlign=middle;fontFamily=Helvetica;fontSize=12;fontColor=default;fillColor=#FFFFFF;gradientColor=none;" parent="Fxfa2yIzksC5TbxXuu06-85" vertex="1">
          <mxGeometry x="7.763999999999669" width="19.69" height="3.94" as="geometry" />
        </mxCell>
        <mxCell id="Fxfa2yIzksC5TbxXuu06-87" value="Frusta&amp;nbsp;&lt;div&gt;Gancio&lt;/div&gt;" style="text;html=1;align=center;verticalAlign=middle;resizable=0;points=[];autosize=1;strokeColor=none;fillColor=none;fontFamily=Helvetica;fontSize=12;fontColor=default;" parent="Fxfa2yIzksC5TbxXuu06-85" vertex="1">
          <mxGeometry x="23.501999999999725" y="0.00100000000009004" width="59.055" height="43.306999999999995" as="geometry" />
        </mxCell>
        <mxCell id="Fxfa2yIzksC5TbxXuu06-88" value="" style="endArrow=none;html=1;rounded=1;fontFamily=Helvetica;fontSize=12;fontColor=default;curved=0;strokeWidth=3.1496;" parent="Fxfa2yIzksC5TbxXuu06-85" edge="1">
          <mxGeometry width="50" height="50" relative="1" as="geometry">
            <mxPoint x="24" y="39.266000000000076" as="sourcePoint" />
            <mxPoint x="18" y="4.266000000000076" as="targetPoint" />
            <Array as="points">
              <mxPoint x="18" y="47.266000000000076" />
              <mxPoint y="19.266000000000076" />
              <mxPoint x="8" y="12.266000000000076" />
              <mxPoint x="18" y="12.266000000000076" />
            </Array>
          </mxGeometry>
        </mxCell>
        <mxCell id="Fxfa2yIzksC5TbxXuu06-89" value="" style="ellipse;whiteSpace=wrap;html=1;aspect=fixed;fillStyle=auto;strokeColor=default;align=center;verticalAlign=middle;fontFamily=Helvetica;fontSize=12;fontColor=default;fillColor=#FFFFFF;" parent="Fxfa2yIzksC5TbxXuu06-85" vertex="1">
          <mxGeometry x="19.823999999999614" y="35.40999999999997" width="7.87" height="7.87" as="geometry" />
        </mxCell>
        <mxCell id="Fxfa2yIzksC5TbxXuu06-90" value="burro&#xa;&#xa;" style="group;labelPosition=center;verticalLabelPosition=middle;align=center;verticalAlign=middle;labelBorderColor=none;" parent="1" vertex="1" connectable="0">
          <mxGeometry x="483.0939999999999" y="-334.6359999999999" width="89.24" height="94.44" as="geometry" />
        </mxCell>
        <mxCell id="Fxfa2yIzksC5TbxXuu06-91" value="" style="verticalLabelPosition=bottom;verticalAlign=top;html=1;shape=mxgraph.basic.arc;startAngle=0.2547732166712652;endAngle=0.7452267833287348;fillStyle=dots;strokeColor=default;align=center;fontFamily=Helvetica;fontSize=12;fontColor=default;fillColor=#FF0000;" parent="Fxfa2yIzksC5TbxXuu06-90" vertex="1">
          <mxGeometry x="11.11" y="11.75" width="67.02" height="70.93" as="geometry" />
        </mxCell>
        <mxCell id="Fxfa2yIzksC5TbxXuu06-92" value="" style="verticalLabelPosition=bottom;verticalAlign=top;html=1;shape=mxgraph.basic.arc;startAngle=0.2547732166712652;endAngle=0.7452267833287348;fillStyle=dots;strokeColor=default;align=center;fontFamily=Helvetica;fontSize=12;fontColor=default;fillColor=#FF0000;" parent="Fxfa2yIzksC5TbxXuu06-90" vertex="1">
          <mxGeometry x="14.44" y="15.75" width="60.37" height="62.94" as="geometry" />
        </mxCell>
        <mxCell id="Fxfa2yIzksC5TbxXuu06-93" value="" style="rounded=1;whiteSpace=wrap;html=1;fillStyle=auto;strokeColor=default;align=center;verticalAlign=middle;fontFamily=Helvetica;fontSize=12;fontColor=default;fillColor=#E6E6E6;rotation=15;" parent="Fxfa2yIzksC5TbxXuu06-90" vertex="1">
          <mxGeometry x="47.06300000000005" y="55.11299999999982" width="14.79" height="10.85" as="geometry" />
        </mxCell>
        <mxCell id="Fxfa2yIzksC5TbxXuu06-94" value="" style="rounded=1;whiteSpace=wrap;html=1;fillStyle=auto;strokeColor=default;align=center;verticalAlign=middle;fontFamily=Helvetica;fontSize=12;fontColor=default;fillColor=#E6E6E6;rotation=-15;" parent="Fxfa2yIzksC5TbxXuu06-90" vertex="1">
          <mxGeometry x="27.38299999999999" y="55.112999999999936" width="13.86" height="10.86" as="geometry" />
        </mxCell>
        <mxCell id="Fxfa2yIzksC5TbxXuu06-95" value="farina" style="group" parent="1" vertex="1" connectable="0">
          <mxGeometry x="401.79699999999985" y="-122.1029999999999" width="67.01999999999998" height="70.93000000000006" as="geometry" />
        </mxCell>
        <mxCell id="Fxfa2yIzksC5TbxXuu06-96" value="" style="verticalLabelPosition=bottom;verticalAlign=top;html=1;shape=mxgraph.basic.arc;startAngle=0.2547732166712652;endAngle=0.7452267833287348;fillStyle=dots;strokeColor=default;align=center;fontFamily=Helvetica;fontSize=12;fontColor=default;fillColor=#FF0000;" parent="Fxfa2yIzksC5TbxXuu06-95" vertex="1">
          <mxGeometry width="67.02" height="70.93" as="geometry" />
        </mxCell>
        <mxCell id="Fxfa2yIzksC5TbxXuu06-97" value="" style="verticalLabelPosition=bottom;verticalAlign=top;html=1;shape=mxgraph.basic.arc;startAngle=0.2547732166712652;endAngle=0.7452267833287348;fillStyle=dots;strokeColor=default;align=center;fontFamily=Helvetica;fontSize=12;fontColor=default;fillColor=#FF0000;" parent="Fxfa2yIzksC5TbxXuu06-95" vertex="1">
          <mxGeometry x="3.3300000000001546" y="4" width="60.37" height="62.94" as="geometry" />
        </mxCell>
        <mxCell id="Fxfa2yIzksC5TbxXuu06-98" value="" style="pointerEvents=1;verticalLabelPosition=bottom;shadow=0;dashed=0;align=center;html=1;verticalAlign=top;shape=mxgraph.electrical.waveforms.sine_wave;fillStyle=dots;strokeColor=default;fontFamily=Helvetica;fontSize=12;fontColor=default;fillColor=#FF0000;" parent="Fxfa2yIzksC5TbxXuu06-95" vertex="1">
          <mxGeometry x="15.527000000000044" y="45.686999999999784" width="19.74" height="7.9" as="geometry" />
        </mxCell>
        <mxCell id="Fxfa2yIzksC5TbxXuu06-99" value="" style="pointerEvents=1;verticalLabelPosition=bottom;shadow=0;dashed=0;align=center;html=1;verticalAlign=top;shape=mxgraph.electrical.waveforms.sine_wave;fillStyle=dots;strokeColor=default;fontFamily=Helvetica;fontSize=12;fontColor=default;fillColor=#FF0000;" parent="Fxfa2yIzksC5TbxXuu06-95" vertex="1">
          <mxGeometry x="35.27399999999989" y="45.68399999999974" width="19.74" height="7.9" as="geometry" />
        </mxCell>
        <mxCell id="Fxfa2yIzksC5TbxXuu06-100" value="" style="pointerEvents=1;verticalLabelPosition=bottom;shadow=0;dashed=0;align=center;html=1;verticalAlign=top;shape=mxgraph.electrical.waveforms.sine_wave;fillStyle=dots;strokeColor=default;fontFamily=Helvetica;fontSize=12;fontColor=default;fillColor=#FF0000;" parent="Fxfa2yIzksC5TbxXuu06-95" vertex="1">
          <mxGeometry x="15.531000000000176" y="37.780999999999835" width="19.74" height="7.9" as="geometry" />
        </mxCell>
        <mxCell id="Fxfa2yIzksC5TbxXuu06-101" value="" style="pointerEvents=1;verticalLabelPosition=bottom;shadow=0;dashed=0;align=center;html=1;verticalAlign=top;shape=mxgraph.electrical.waveforms.sine_wave;fillStyle=dots;strokeColor=default;fontFamily=Helvetica;fontSize=12;fontColor=default;fillColor=#FF0000;" parent="Fxfa2yIzksC5TbxXuu06-95" vertex="1">
          <mxGeometry x="35.26800000000003" y="37.77799999999979" width="19.74" height="7.9" as="geometry" />
        </mxCell>
        <mxCell id="Fxfa2yIzksC5TbxXuu06-102" value="" style="group" parent="1" vertex="1" connectable="0">
          <mxGeometry x="240.16100000000012" y="-204.7190000000001" width="95" height="51" as="geometry" />
        </mxCell>
        <mxCell id="Fxfa2yIzksC5TbxXuu06-103" value="" style="group" parent="Fxfa2yIzksC5TbxXuu06-102" vertex="1" connectable="0">
          <mxGeometry width="95" height="51" as="geometry" />
        </mxCell>
        <mxCell id="Fxfa2yIzksC5TbxXuu06-104" value="" style="endArrow=none;html=1;rounded=1;shadow=0;curved=0;strokeWidth=1.1811;" parent="Fxfa2yIzksC5TbxXuu06-103" edge="1">
          <mxGeometry width="50" height="50" relative="1" as="geometry">
            <mxPoint x="95" as="sourcePoint" />
            <mxPoint as="targetPoint" />
            <Array as="points">
              <mxPoint x="95" y="51" />
              <mxPoint x="48" y="51" />
              <mxPoint y="51" />
            </Array>
          </mxGeometry>
        </mxCell>
        <mxCell id="Fxfa2yIzksC5TbxXuu06-105" value="" style="endArrow=none;html=1;rounded=1;shadow=0;curved=0;strokeWidth=1.1811;" parent="Fxfa2yIzksC5TbxXuu06-103" edge="1">
          <mxGeometry width="50" height="50" relative="1" as="geometry">
            <mxPoint x="91" as="sourcePoint" />
            <mxPoint x="4" as="targetPoint" />
            <Array as="points">
              <mxPoint x="91" y="47" />
              <mxPoint x="4" y="47" />
            </Array>
          </mxGeometry>
        </mxCell>
        <mxCell id="Fxfa2yIzksC5TbxXuu06-106" value="" style="group" parent="Fxfa2yIzksC5TbxXuu06-102" vertex="1" connectable="0">
          <mxGeometry x="19.682999999999993" y="3.9429999999999836" width="56.00999999999999" height="33.22999999999996" as="geometry" />
        </mxCell>
        <mxCell id="Fxfa2yIzksC5TbxXuu06-107" value="" style="group" parent="Fxfa2yIzksC5TbxXuu06-106" vertex="1" connectable="0">
          <mxGeometry width="56.00999999999999" height="33.22999999999999" as="geometry" />
        </mxCell>
        <mxCell id="Fxfa2yIzksC5TbxXuu06-108" value="" style="group;fillColor=none;container=0;fillStyle=dots;" parent="Fxfa2yIzksC5TbxXuu06-107" vertex="1" connectable="0">
          <mxGeometry width="56.01" height="33.23" as="geometry" />
        </mxCell>
        <mxCell id="Fxfa2yIzksC5TbxXuu06-109" value="" style="verticalLabelPosition=bottom;verticalAlign=top;html=1;shape=mxgraph.basic.arc;startAngle=0.5228132783035719;endAngle=0.931180165086578;fillStyle=auto;fillColor=#66FFB3;" parent="Fxfa2yIzksC5TbxXuu06-107" vertex="1">
          <mxGeometry y="10.029958878139894" width="23.170383608225663" height="23.16066798628343" as="geometry" />
        </mxCell>
        <mxCell id="Fxfa2yIzksC5TbxXuu06-110" value="" style="verticalLabelPosition=bottom;verticalAlign=top;html=1;shape=mxgraph.basic.arc;startAngle=0.7768001258780505;endAngle=0.08146438747349113;" parent="Fxfa2yIzksC5TbxXuu06-107" vertex="1">
          <mxGeometry x="6.389999999999986" y="1.8200000000000216" width="25.11" height="23.16" as="geometry" />
        </mxCell>
        <mxCell id="Fxfa2yIzksC5TbxXuu06-111" value="" style="verticalLabelPosition=bottom;verticalAlign=top;html=1;shape=mxgraph.basic.arc;startAngle=0.8805625920328525;endAngle=0.23557103081184777;fillColor=#97D077;" parent="Fxfa2yIzksC5TbxXuu06-107" vertex="1">
          <mxGeometry x="20.981709172592673" width="23.170383608225663" height="23.16066798628343" as="geometry" />
        </mxCell>
        <mxCell id="Fxfa2yIzksC5TbxXuu06-112" value="" style="verticalLabelPosition=bottom;verticalAlign=top;html=1;shape=mxgraph.basic.arc;startAngle=0.9911671385559326;endAngle=0.5054236362483322;" parent="Fxfa2yIzksC5TbxXuu06-107" vertex="1">
          <mxGeometry x="32.839616391774314" y="10.03019048481977" width="23.170383608225663" height="23.16066798628343" as="geometry" />
        </mxCell>
        <mxCell id="Fxfa2yIzksC5TbxXuu06-113" value="" style="endArrow=none;html=1;rounded=0;" parent="Fxfa2yIzksC5TbxXuu06-107" edge="1">
          <mxGeometry width="50" height="50" relative="1" as="geometry">
            <mxPoint x="9.863875299403048" y="33.150000000000034" as="sourcePoint" />
            <mxPoint x="44.156043039577014" y="33.150000000000034" as="targetPoint" />
          </mxGeometry>
        </mxCell>
        <mxCell id="Fxfa2yIzksC5TbxXuu06-114" value="" style="group" parent="Fxfa2yIzksC5TbxXuu06-106" vertex="1" connectable="0">
          <mxGeometry x="8.740000000000009" y="7.755000000000109" width="39.37500000000017" height="22.93199999999996" as="geometry" />
        </mxCell>
        <mxCell id="Fxfa2yIzksC5TbxXuu06-115" value="" style="ellipse;whiteSpace=wrap;html=1;fillStyle=auto;strokeColor=none;align=center;verticalAlign=middle;fontFamily=Helvetica;fontSize=12;fontColor=default;fillColor=#999999;" parent="Fxfa2yIzksC5TbxXuu06-114" vertex="1">
          <mxGeometry y="10.784999999999968" width="3.95" height="4.09" as="geometry" />
        </mxCell>
        <mxCell id="Fxfa2yIzksC5TbxXuu06-116" value="" style="ellipse;whiteSpace=wrap;html=1;fillStyle=auto;strokeColor=none;align=center;verticalAlign=middle;fontFamily=Helvetica;fontSize=12;fontColor=default;fillColor=#999999;" parent="Fxfa2yIzksC5TbxXuu06-114" vertex="1">
          <mxGeometry x="7.867000000000019" y="18.841999999999985" width="3.95" height="4.09" as="geometry" />
        </mxCell>
        <mxCell id="Fxfa2yIzksC5TbxXuu06-117" value="" style="ellipse;whiteSpace=wrap;html=1;fillStyle=auto;strokeColor=none;align=center;verticalAlign=middle;fontFamily=Helvetica;fontSize=12;fontColor=default;fillColor=#999999;" parent="Fxfa2yIzksC5TbxXuu06-114" vertex="1">
          <mxGeometry x="15.744000000000085" y="7.868999999999971" width="3.95" height="4.09" as="geometry" />
        </mxCell>
        <mxCell id="Fxfa2yIzksC5TbxXuu06-118" value="" style="ellipse;whiteSpace=wrap;html=1;fillStyle=auto;strokeColor=none;align=center;verticalAlign=middle;fontFamily=Helvetica;fontSize=12;fontColor=default;fillColor=#999999;" parent="Fxfa2yIzksC5TbxXuu06-114" vertex="1">
          <mxGeometry x="23.62100000000015" y="14.875999999999976" width="3.95" height="4.09" as="geometry" />
        </mxCell>
        <mxCell id="Fxfa2yIzksC5TbxXuu06-119" value="" style="ellipse;whiteSpace=wrap;html=1;fillStyle=auto;strokeColor=none;align=center;verticalAlign=middle;fontFamily=Helvetica;fontSize=12;fontColor=default;fillColor=#999999;" parent="Fxfa2yIzksC5TbxXuu06-114" vertex="1">
          <mxGeometry x="27.568000000000154" y="3.782999999999987" width="3.95" height="4.09" as="geometry" />
        </mxCell>
        <mxCell id="Fxfa2yIzksC5TbxXuu06-120" value="" style="ellipse;whiteSpace=wrap;html=1;fillStyle=auto;strokeColor=none;align=center;verticalAlign=middle;fontFamily=Helvetica;fontSize=12;fontColor=default;fillColor=#999999;" parent="Fxfa2yIzksC5TbxXuu06-114" vertex="1">
          <mxGeometry x="7.865000000000123" width="3.95" height="4.09" as="geometry" />
        </mxCell>
        <mxCell id="Fxfa2yIzksC5TbxXuu06-121" value="" style="ellipse;whiteSpace=wrap;html=1;fillStyle=auto;strokeColor=none;align=center;verticalAlign=middle;fontFamily=Helvetica;fontSize=12;fontColor=default;fillColor=#999999;" parent="Fxfa2yIzksC5TbxXuu06-114" vertex="1">
          <mxGeometry x="35.425000000000125" y="11.95999999999998" width="3.95" height="4.09" as="geometry" />
        </mxCell>
        <mxCell id="gZGZT8LpR8FbKMcyjmq5-2" value="Muffin al cioccolato" style="verticalLabelPosition=middle;verticalAlign=middle;html=1;shape=mxgraph.basic.banner;fillStyle=auto;strokeColor=default;align=center;fontFamily=Helvetica;fontSize=16;fontColor=default;fillColor=#FFFFFF;labelPosition=center;fontStyle=1;shadow=1;" vertex="1" parent="1">
          <mxGeometry x="99.00399999999998" y="-1090.546" width="629.92" height="70.87" as="geometry" />
        </mxCell>
        <mxCell id="gZGZT8LpR8FbKMcyjmq5-18" value="" style="group" vertex="1" connectable="0" parent="1">
          <mxGeometry x="314.95700000000016" y="-866.123" width="95" height="51" as="geometry" />
        </mxCell>
        <mxCell id="Fxfa2yIzksC5TbxXuu06-5" value="" style="group" parent="gZGZT8LpR8FbKMcyjmq5-18" vertex="1" connectable="0">
          <mxGeometry width="95" height="51" as="geometry" />
        </mxCell>
        <mxCell id="Fxfa2yIzksC5TbxXuu06-6" value="" style="endArrow=none;html=1;rounded=1;shadow=0;curved=0;strokeWidth=1.1811;" parent="Fxfa2yIzksC5TbxXuu06-5" edge="1">
          <mxGeometry width="50" height="50" relative="1" as="geometry">
            <mxPoint x="95" as="sourcePoint" />
            <mxPoint as="targetPoint" />
            <Array as="points">
              <mxPoint x="95" y="51" />
              <mxPoint x="48" y="51" />
              <mxPoint y="51" />
            </Array>
          </mxGeometry>
        </mxCell>
        <mxCell id="Fxfa2yIzksC5TbxXuu06-7" value="" style="endArrow=none;html=1;rounded=1;shadow=0;curved=0;strokeWidth=1.1811;" parent="Fxfa2yIzksC5TbxXuu06-5" edge="1">
          <mxGeometry width="50" height="50" relative="1" as="geometry">
            <mxPoint x="91" as="sourcePoint" />
            <mxPoint x="4" as="targetPoint" />
            <Array as="points">
              <mxPoint x="91" y="47" />
              <mxPoint x="4" y="47" />
            </Array>
          </mxGeometry>
        </mxCell>
        <mxCell id="Fxfa2yIzksC5TbxXuu06-35" value="" style="group" parent="gZGZT8LpR8FbKMcyjmq5-18" vertex="1" connectable="0">
          <mxGeometry x="7.757000000000062" y="15.743000000000166" width="77.70599999999999" height="22.744000000000028" as="geometry" />
        </mxCell>
        <mxCell id="Fxfa2yIzksC5TbxXuu06-36" value="" style="group" parent="Fxfa2yIzksC5TbxXuu06-35" vertex="1" connectable="0">
          <mxGeometry x="0.12600000000000477" width="77.57999999999998" height="8.870000000000005" as="geometry" />
        </mxCell>
        <mxCell id="Fxfa2yIzksC5TbxXuu06-37" value="" style="pointerEvents=1;verticalLabelPosition=bottom;shadow=0;dashed=0;align=center;html=1;verticalAlign=top;shape=mxgraph.electrical.waveforms.sine_wave;fillStyle=dots;strokeColor=default;fontFamily=Helvetica;fontSize=12;fontColor=default;fillColor=#FF0000;" parent="Fxfa2yIzksC5TbxXuu06-36" vertex="1">
          <mxGeometry y="0.47999999999996135" width="19.68" height="7.87" as="geometry" />
        </mxCell>
        <mxCell id="Fxfa2yIzksC5TbxXuu06-38" value="" style="pointerEvents=1;verticalLabelPosition=bottom;shadow=0;dashed=0;align=center;html=1;verticalAlign=top;shape=mxgraph.electrical.waveforms.sine_wave;fillStyle=dots;strokeColor=default;fontFamily=Helvetica;fontSize=12;fontColor=default;fillColor=#FF0000;" parent="Fxfa2yIzksC5TbxXuu06-36" vertex="1">
          <mxGeometry x="39.359999999999985" width="19.78" height="8.87" as="geometry" />
        </mxCell>
        <mxCell id="Fxfa2yIzksC5TbxXuu06-39" value="" style="pointerEvents=1;verticalLabelPosition=bottom;shadow=0;dashed=0;align=center;html=1;verticalAlign=top;shape=mxgraph.electrical.waveforms.sine_wave;fillStyle=dots;strokeColor=default;fontFamily=Helvetica;fontSize=12;fontColor=default;fillColor=#FF0000;" parent="Fxfa2yIzksC5TbxXuu06-36" vertex="1">
          <mxGeometry x="19.679999999999993" y="0.47999999999996135" width="19.74" height="7.9" as="geometry" />
        </mxCell>
        <mxCell id="Fxfa2yIzksC5TbxXuu06-40" value="" style="pointerEvents=1;verticalLabelPosition=bottom;shadow=0;dashed=0;align=center;html=1;verticalAlign=top;shape=mxgraph.electrical.waveforms.sine_wave;fillStyle=dots;strokeColor=default;fontFamily=Helvetica;fontSize=12;fontColor=default;fillColor=#FF0000;" parent="Fxfa2yIzksC5TbxXuu06-36" vertex="1">
          <mxGeometry x="59.04999999999998" y="1" width="18.53" height="6.9" as="geometry" />
        </mxCell>
        <mxCell id="Fxfa2yIzksC5TbxXuu06-41" value="" style="group" parent="Fxfa2yIzksC5TbxXuu06-35" vertex="1" connectable="0">
          <mxGeometry x="0.06300000000000239" y="6.937000000000012" width="77.57999999999998" height="8.870000000000005" as="geometry" />
        </mxCell>
        <mxCell id="Fxfa2yIzksC5TbxXuu06-42" value="" style="pointerEvents=1;verticalLabelPosition=bottom;shadow=0;dashed=0;align=center;html=1;verticalAlign=top;shape=mxgraph.electrical.waveforms.sine_wave;fillStyle=dots;strokeColor=default;fontFamily=Helvetica;fontSize=12;fontColor=default;fillColor=#FF0000;" parent="Fxfa2yIzksC5TbxXuu06-41" vertex="1">
          <mxGeometry y="0.47999999999996135" width="19.68" height="7.87" as="geometry" />
        </mxCell>
        <mxCell id="Fxfa2yIzksC5TbxXuu06-43" value="" style="pointerEvents=1;verticalLabelPosition=bottom;shadow=0;dashed=0;align=center;html=1;verticalAlign=top;shape=mxgraph.electrical.waveforms.sine_wave;fillStyle=dots;strokeColor=default;fontFamily=Helvetica;fontSize=12;fontColor=default;fillColor=#FF0000;" parent="Fxfa2yIzksC5TbxXuu06-41" vertex="1">
          <mxGeometry x="39.359999999999985" width="19.78" height="8.87" as="geometry" />
        </mxCell>
        <mxCell id="Fxfa2yIzksC5TbxXuu06-44" value="" style="pointerEvents=1;verticalLabelPosition=bottom;shadow=0;dashed=0;align=center;html=1;verticalAlign=top;shape=mxgraph.electrical.waveforms.sine_wave;fillStyle=dots;strokeColor=default;fontFamily=Helvetica;fontSize=12;fontColor=default;fillColor=#FF0000;" parent="Fxfa2yIzksC5TbxXuu06-41" vertex="1">
          <mxGeometry x="19.679999999999993" y="0.47999999999996135" width="19.74" height="7.9" as="geometry" />
        </mxCell>
        <mxCell id="Fxfa2yIzksC5TbxXuu06-45" value="" style="pointerEvents=1;verticalLabelPosition=bottom;shadow=0;dashed=0;align=center;html=1;verticalAlign=top;shape=mxgraph.electrical.waveforms.sine_wave;fillStyle=dots;strokeColor=default;fontFamily=Helvetica;fontSize=12;fontColor=default;fillColor=#FF0000;" parent="Fxfa2yIzksC5TbxXuu06-41" vertex="1">
          <mxGeometry x="59.04999999999998" y="1" width="18.53" height="6.9" as="geometry" />
        </mxCell>
        <mxCell id="Fxfa2yIzksC5TbxXuu06-46" value="" style="group" parent="Fxfa2yIzksC5TbxXuu06-35" vertex="1" connectable="0">
          <mxGeometry y="13.874000000000024" width="77.57999999999998" height="8.870000000000005" as="geometry" />
        </mxCell>
        <mxCell id="Fxfa2yIzksC5TbxXuu06-47" value="" style="pointerEvents=1;verticalLabelPosition=bottom;shadow=0;dashed=0;align=center;html=1;verticalAlign=top;shape=mxgraph.electrical.waveforms.sine_wave;fillStyle=dots;strokeColor=default;fontFamily=Helvetica;fontSize=12;fontColor=default;fillColor=#FF0000;" parent="Fxfa2yIzksC5TbxXuu06-46" vertex="1">
          <mxGeometry y="0.47999999999996135" width="19.68" height="7.87" as="geometry" />
        </mxCell>
        <mxCell id="Fxfa2yIzksC5TbxXuu06-48" value="" style="pointerEvents=1;verticalLabelPosition=bottom;shadow=0;dashed=0;align=center;html=1;verticalAlign=top;shape=mxgraph.electrical.waveforms.sine_wave;fillStyle=dots;strokeColor=default;fontFamily=Helvetica;fontSize=12;fontColor=default;fillColor=#FF0000;" parent="Fxfa2yIzksC5TbxXuu06-46" vertex="1">
          <mxGeometry x="39.359999999999985" width="19.78" height="8.87" as="geometry" />
        </mxCell>
        <mxCell id="Fxfa2yIzksC5TbxXuu06-49" value="" style="pointerEvents=1;verticalLabelPosition=bottom;shadow=0;dashed=0;align=center;html=1;verticalAlign=top;shape=mxgraph.electrical.waveforms.sine_wave;fillStyle=dots;strokeColor=default;fontFamily=Helvetica;fontSize=12;fontColor=default;fillColor=#FF0000;" parent="Fxfa2yIzksC5TbxXuu06-46" vertex="1">
          <mxGeometry x="19.679999999999993" y="0.47999999999996135" width="19.74" height="7.9" as="geometry" />
        </mxCell>
        <mxCell id="Fxfa2yIzksC5TbxXuu06-50" value="" style="pointerEvents=1;verticalLabelPosition=bottom;shadow=0;dashed=0;align=center;html=1;verticalAlign=top;shape=mxgraph.electrical.waveforms.sine_wave;fillStyle=dots;strokeColor=default;fontFamily=Helvetica;fontSize=12;fontColor=default;fillColor=#FF0000;" parent="Fxfa2yIzksC5TbxXuu06-46" vertex="1">
          <mxGeometry x="59.04999999999998" y="1" width="18.53" height="6.9" as="geometry" />
        </mxCell>
        <mxCell id="gZGZT8LpR8FbKMcyjmq5-19" value="" style="shape=image;verticalLabelPosition=bottom;labelBackgroundColor=default;verticalAlign=top;aspect=fixed;imageAspect=0;image=data:image/svg+xml,PHN2ZyB4bWxuczp4bGluaz0iaHR0cDovL3d3dy53My5vcmcvMTk5OS94bGluayIgeG1sbnM9Imh0dHA6Ly93d3cudzMub3JnLzIwMDAvc3ZnIiB4bWw6c3BhY2U9InByZXNlcnZlIiBzdHlsZT0iZW5hYmxlLWJhY2tncm91bmQ6bmV3IDAgMCAxMDAwIDEwMDA7IiB2aWV3Qm94PSIwIDAgMTAwMCAxMjUwIiB5PSIwcHgiIHg9IjBweCIgdmVyc2lvbj0iMS4xIj48Zz48cGF0aCBkPSJNNTQ0LjUwNjc3NDksODA0LjM0NDQ4MjRjMC44NTUyMjQ2LDQxLjQyNDU2MDUsMi44OTI1NzgxLDg0LjAxMzI0NDYtMi4xNjMyNjksMTI1LjI0MDQxNzUgICBjLTMuNTA5MjE2MywyOC42MTU1Mzk2LTIxLjUxMjgxNzQsNzAuMTgxMDkxMy01OC4wMzMyNjQyLDU2LjIwNDI4NDcgICBjLTM0LjYxMTE3NTUtMTMuMjQ2MjE1OC0zMi41NTgwNzUtNjQuNTUxNTc0Ny0zMy4zODA2NzYzLTk0LjMyNjQ3NzEgICBjLTEuMTk2OTYwNC00My4zMjQwOTY3LDAuMzUyODQ0Mi04Ni42ODA2NjQxLDIuMDE1ODY5MS0xMjkuOTcxNjE4NyAgIGMxLjU5MjgwNC00MS40NjI4Mjk2LDQuNjY2NzQ4LTgyLjgwNzY3ODIsOC41NjY1ODk0LTEyNC4xMTM4MzA2YzEuNzkwMTAwMS0xOC45NjAyMDUxLDIuNDc2NTMyLTQxLjE1Mzc0NzYsMTAuODgyMDE5LTU4LjUyOTExMzggICBjNy40OTU5NDEyLTE1LjQ5NTIzOTMsOC42NTk3NTk1LTM1LjAwMzA1MTgtMC40OTAxNDI4LTQ5Ljg5ODc0MjcgICBjLTQyLjAzNzEzOTktNjguNDM0NzIyOS04Ni4yMzM1MjA1LTEzNC45NjUwODc5LTExNy4xODczMTY5LTIwOS40Nzc4MTM3ICAgYy0xNC45OTg1MzUyLTM2LjEwNDg1ODQtMjguNDM3MzQ3NC03My45NDk2MTU1LTMwLjA0ODIxNzgtMTEzLjM3NDg0NzQgICBjLTEuMTY4ODIzMi0yOC42MDY0MzAxLDMuNTU5ODQ1LTU3LjUwODQ1MzQsMTQuMTkyMDQ3MS04NC4xMTI2Nzg1ICAgYzIzLjA5Mjg2NS01Ny43ODM1NjkzLDcyLjQ5MjQ5MjctOTcuMDYyMjEwMSwxMzMuNTY2MDA5NS0xMDcuODQ2ODI0NiAgIEM1NDAuMDk1MjE0OCwyLjE4ODAwNzgsNjA2LjY2MzI2OSwzMC4xMDc3NDIzLDY0NC4zMDYyNzQ0LDg4LjE4NTA0MzMgICBjMTguNTU0MDc3MSwyOC42MjYwNjgxLDI5LjA3MjAyMTUsNjMuNDU1MDQ3NiwzMC45MzM1MzI3LDk3LjQ0NTM1ODMgICBjMi4xNDgwMTAzLDM5LjIyMTA2OTMtOS4wMjQzNTMsNzcuMzAwNDc2MS0yMy4wMjcyMjE3LDExMy41MDE2NDc5ICAgYy0yOC42MjU3OTM1LDc0LjAwNjA0MjUtNjguOTMxODIzNywxNDMuNjg0MzI2Mi0xMTIuODgyMjAyMSwyMDkuNTU5MzU2NyAgIGMtMTAuNzU5MDMzMiwxNi4xMjYyODE3LTIxLjcyMTEzMDQsMzEuMjExMDU5Ni0xOC45OTU5NzE3LDUxLjY1MzA3NjIgICBjMS4yMDg2NzkyLDkuMDY3MjYwNyw1LjQ0MTUyODMsMTYuODY5ODczLDguMTQwMDc1NywyNS40NzU4OTExYzMuMDA5NjQzNiw5LjU5ODI2NjYsMy45NTUyMDAyLDE5LjY0OTM1Myw0Ljg5ODYyMDYsMjkuNjE2MzMzICAgYzMuOTgxNTY3NCw0Mi4wNjY0MDYyLDYuOTcwODg2Miw4NC4yMzU3Nzg4LDguOTYxMzAzNywxMjYuNDQyOTkzMiAgIEM1NDMuMzE1OTE4LDc2Mi42OTEzNDUyLDU0NC4wNDU0MTAyLDc4My41MTQ4OTI2LDU0NC41MDY3NzQ5LDgwNC4zNDQ0ODI0eiBNNDYzLjIzMjgxODYsNDkwLjY4NjEyNjcgICBjMi4wNzQwMzU2LTYuODc2MTU5Ny02LjY3MTUwODgtMTkuOTA0NTQxLTkuMjI0Mzk1OC0yNi4xOTA5NDg1Yy0zLjgwMTE0NzUtOS4zNjAxNjg1LTcuNTM2MjU0OS0xOC43NDcyODM5LTExLjE3NDEzMzMtMjguMTcyMTE5MSAgIGMtNy4yNTk5MTgyLTE4LjgwODQ3MTctMTQuMTM0MTU1My0zNy43NzIxNTU4LTIwLjM1MTM0ODktNTYuOTUyMjcwNSAgIGMtMTIuODQ2NTU3Ni0zOS42MzE3NDQ0LTIyLjgzNjQ4NjgtODAuMjI1NzY5LTI3LjkwMjE2MDYtMTIxLjYxOTc1MSAgIGMtOC4wMTg3NjgzLTY1LjUyNTIyMjgtNi43NzY3MDI5LTE0Ny40OTkyNTIzLDQxLjc5NzY2ODUtMTk4LjQ1NzMyMTIgICBjMjEuMDk3MjktMjIuMTMyNjE0MSw0OS41NDM3MDEyLTM1Ljk2MDg5OTQsODAuNTQwODAyLTMxLjIyMDQzMDQgICBjMzAuNjM2NDc0Niw0LjY4NTMxOTksNTUuMzc5Njk5NywyMy44OTk0ODQ2LDcyLjUxNTY4Niw0OS4wMjcxMTQ5ICAgYzQwLjkxNjg3MDEsNTkuOTk5Mzg5NiwzMy45Nzg2Mzc3LDEzOC4xOTM1MjcyLDE4LjkwNTc2MTcsMjA1LjQ5ODgwOTggICBjLTguMTU0NjAyMSwzNi40MTI3NTAyLTE4Ljg0OTM2NTIsNzIuMTg4MzI0LTMxLjYzNzkzOTUsMTA3LjIzNjkwOCAgIGMtNi4zNTcwNTU3LDE3LjQyMjI3MTctMTMuMjAwNTAwNSwzNC42NjQ5NzgtMjAuNDEyMzUzNSw1MS43NTAzOTY3Yy0zLjcyMDUyLDguODE0MjctNy41Mzk5NzgsMTcuNTg2NTE3My0xMS40NDE5NTU2LDI2LjMyMTk2MDQgICBjLTIuNzA5MTA2NCw2LjA2NTA2MzUtOC44MTk2NDExLDE0LjU1MTU0NDItOC4yODYzMTU5LDIxLjQ1OTk5MTUgICBjMjYuMTk5MzQwOC00MC4wODAyNjEyLDUwLjgyMjQ0ODctODEuMTk4NTQ3NCw3Mi4zMTYwNC0xMjQuMDE4MDY2NCAgIGMyMC44MDgyMjc1LTQxLjQ1NDI1NDIsNDEuMjU1Nzk4My04NS42NTYwOTc0LDUwLjA4OTQ3NzUtMTMxLjQ1NTMyMjMgICBjMTQuNTM1Mjc4My03NS4zNTk0NjY2LTE3LjI1NzE0MTEtMTU4LjUwMTEyOTItODcuNTA1NjE1Mi0xOTQuNDgxNDE0OCAgIEM1MTIuNjUxNTUwMyw5LjI5MTc0NzEsNDMzLjcyMzA4MzUsMjQuNjE0OTA2MywzODcuMjc1MDU0OSw3MC42MDc3NTc2ICAgYy01MC42MTAyOTA1LDUwLjExNDI1NzgtNTkuNDA2OTUxOSwxMjUuODgyODQzLTM5LjcxMDYzMjMsMTkxLjcyOTAwMzkgICBDMzcyLjE0NTE0MTYsMzQ0LjUxMTg0MDgsNDE3LjUyMTk0MjEsNDE4Ljg2NjgyMTMsNDYzLjIzMjgxODYsNDkwLjY4NjEyNjd6IE00NzguMjEyNTI0NCw0ODkuMDkzMTcwMiAgIGMwLjIzMTc4MS0wLjE2MzkwOTksMC40NjM1NjItMC4zMjc3NTg4LDAuNjk1MzczNS0wLjQ5MTY2ODdjLTExLjg2MzczOS03MC4zMzAyMzA3LTI0Ljc2MjYzNDMtMTQwLjQzMzgwNzQtMjkuODIxNzQ2OC0yMTEuNjc3MjQ2MSAgIGMtMi4yMjEwNjkzLTMxLjI3NzU1NzQtMy4yMjAxODQzLTYyLjY5NTExNDEtMi40ODUyNi05NC4wNDg1ODRjMC43MDAxOTUzLTI5Ljg3MjIzODIsMi4zODgxNTMxLTYxLjY1ODA4MTEsMTIuMDY3MTY5Mi05MC4xNzgyNzYxICAgYzcuNDI2ODc5OS0yMS44ODQwMjU2LDI0LjY5NTYxNzctNDUuODUzMjUyNCw1MC45MjA1MzIyLTQwLjcxOTMxNDYgICBjMjYuODk1NDE2Myw1LjI2NTE5MzksMzcuNDU3NDg5LDM1Ljk0ODMzMzcsNDIuNzU2NDM5Miw1OS4yNTU3MjJjNy4wMTY5Njc4LDMwLjg2NDE1ODYsNy40MTgyNzM5LDYzLjA4NjI1MDMsNy4xMTA1OTU3LDk0LjU5NTYwMzkgICBjLTAuMzA4ODk4OSwzMS42Mjk5NDM4LTIuMzU4MDkzMyw2My4yMjc5MzU4LTUuNzMzMzk4NCw5NC42NzQ1MyAgIGMtNi43NzQzNTMsNjMuMTEzNDMzOC0xOS4wNDc2Njg1LDEyNS4zMTE2NzYtMzIuODg1NDM3LDE4Ny4yMDI2NjcyICAgYzEwLjQ4MTg3MjYtMTYuNzEyMDY2NywxNy41Mjg1NjQ1LTM2LjI1NTM0MDYsMjUuMTYwNTgzNS01NC4zOTA4OTk3ICAgYzcuNTI5NDgtMTcuODkxNzU0MiwxNC42NDI1NzgxLTM1Ljk2MTAyOTEsMjEuMTg4MTEwNC01NC4yMzY1NDE3ICAgYzEzLjA5OTY3MDQtMzYuNTc0Njc2NSwyMy45MDA4Nzg5LTc0LjAwMzQ0ODUsMzEuMjUwMjQ0MS0xMTIuMTY5NzM4OCAgIGMxMi4wNzc3NTg4LTYyLjcyMjE4MzIsMTcuNTcxNzc3My0xMzcuMTcwNTkzMy0yNS43Mzg0MDMzLTE4OS45MzcxMTg1ICAgYy0xOC44NzQ4MTY5LTIyLjk5NTgwNzYtNDUuNzI5MzA5MS0zOS42NDQ2NzYyLTc2LjQyNzQyOTItMzYuMTIxNzYxMyAgIGMtMjguNTc4MjE2NiwzLjI3OTYxMzUtNTEuNzIzODE1OSwyNC43MjE2OTExLTY2LjQwOTI3MTIsNDguMjU3MDc2MyAgIGMtMTYuMDMxNTg1NywyNS42OTI4NjM1LTIyLjA5NzYyNTcsNTYuMjQ0ODQyNS0yNC43Mzc0ODc4LDg2LjAyNDg1NjYgICBjLTMuMjE3ODY1LDM2LjMwMDUwNjYsMC4wMzA4MjI4LDcyLjgzNDgwODMsNi4zNjAwMTU5LDEwOC42MjgwMjEyICAgQzQyNC4xNTkzNjI4LDM1NS40NDc1NzA4LDQ1MC44Nzk3MzAyLDQyMi4wMjM5ODY4LDQ3OC4yMTI1MjQ0LDQ4OS4wOTMxNzAyeiBNNTA3LjM5NDI4NzEsNDg4LjAwOTU4MjUgICBjMC40MTMwODU5LTAuODAwNjU5MiwwLjk5NDA0OTEtMS41MTk4MzY0LDEuMTcwNTkzMy0yLjMyNzM2MjFjOS4zOTY4NTA2LTQyLjk5NDI5MzIsMTguNTE4MjQ5NS04Ni4wNDc3NiwyNC45ODE2ODk1LTEyOS42MDE2ODQ2ICAgYzUuOTM2NzA2NS00MC4wMDQ0MjUsMTAuNjA5MzE0LTgwLjE1Njc5OTMsMTIuMjM5NTAyLTEyMC41OTc4ODUxICAgYzEuNjE0MTM1Ny00MC4wMzk4NDA3LDIuMTczMDk1Ny04MC4wNzQwNTA5LTUuNzMyMjk5OC0xMTkuNjM2NzU2OSAgIGMtMy4wNDM3MDEyLTE1LjIzMjYxMjYtNy40NDI0NDM4LTMwLjEwODYzNDktMTguMzk3MzM4OS00MS45NDcwMDYyYy0zLjc1MjE5NzMtNC4wNTQ3MDI4LTcuNzA2NDIwOS03Ljk4MTQyMjQtMTQuMjYyMTQ2LTguNjIxOTAyNSAgIEM1MDcuMzk0Mjg3MSwyMDYuMzg2MDMyMSw1MDcuMzk0Mjg3MSwzNDcuMTYwNDYxNCw1MDcuMzk0Mjg3MSw0ODguMDA5NTgyNXogTTQ5My4yMDAzMTc0LDQ5My4xNTIwMzg2ICAgYzAuMzQzMjYxNy0wLjExNzM0MDEsMC42ODY0MzE5LTAuMjM0NjQ5NywxLjAyOTYwMjEtMC4zNTE5ODk3YzAtMTQyLjA1NDc0ODUsMC0yODQuMTA5NDk3MSwwLTQyNi42MDg0OSAgIGMtMTEuNTA0MDg5NCwyLjE3NzA3MDYtMTkuMDQ0NDMzNiwxOS40NjQ1MDgxLTIyLjU3NTgzNjIsMjkuMDc0MDczOCAgIGMtNS4zMDMwMzk2LDE0LjQzMDM4OTQtNy45NTcwMzEyLDI5Ljg1MTA1OS05LjQ5Njg4NzIsNDUuMDk5MzM0NyAgIEM0NTAuMjcxOTQyMSwyNTguMDU3OTUyOSw0NzEuMTY5NjQ3MiwzNzcuODg1ODAzMiw0OTMuMjAwMzE3NCw0OTMuMTUyMDM4NnogTTQ5Mi40MTgwMjk4LDU2NS43MjU5NTIxICAgYy0xMS41MDQxODA5LDguNDk4NTk2Mi0xNS4wMTA4NjQzLDIzLjUzNTU4MzUtMTYuNzA2MzU5OSwzNy4wMDY3NzQ5ICAgYy0yLjA0MjMyNzksMTYuMjI2ODA2Ni0yLjYzNTY1MDYsMzIuNjk1OTIyOS0zLjA2ODgxNzEsNDkuMDMxMTg5ICAgYy0wLjg3NTM5NjcsMzMuMDEyMzkwMS0yLjE3NzI0NjEsNjYuMDYyOTI3Mi0xLjg3NjE1OTcsOTkuMDgzMTkwOSAgIGMwLjYwMTgwNjYsNjUuOTkzNDY5MiwyLjQ0OTc5ODYsMTMxLjk0Nzk5OCw0Ljk0MDMwNzYsMTk3Ljg5MTk2NzggICBDNDc5LjczODg2MTEsODIxLjQ1MzU1MjIsNDg2Ljg4NDg1NzIsNjk0LjI2NDQ2NTMsNDkyLjQxODAyOTgsNTY1LjcyNTk1MjF6Ii8+PC9nPjx0ZXh0IGZvbnQtZmFtaWx5PSInSGVsdmV0aWNhIE5ldWUnLCBIZWx2ZXRpY2EsIEFyaWFsLVVuaWNvZGUsIEFyaWFsLCBTYW5zLXNlcmlmIiBmb250LXdlaWdodD0iYm9sZCIgZm9udC1zaXplPSI1cHgiIGZpbGw9IiMwMDAwMDAiIHk9IjEwMTUiIHg9IjAiPkNyZWF0ZWQgYnkgQnJhZDwvdGV4dD48dGV4dCBmb250LWZhbWlseT0iJ0hlbHZldGljYSBOZXVlJywgSGVsdmV0aWNhLCBBcmlhbC1Vbmljb2RlLCBBcmlhbCwgU2Fucy1zZXJpZiIgZm9udC13ZWlnaHQ9ImJvbGQiIGZvbnQtc2l6ZT0iNXB4IiBmaWxsPSIjMDAwMDAwIiB5PSIxMDIwIiB4PSIwIj5mcm9tIHRoZSBOb3VuIFByb2plY3Q8L3RleHQ+PC9zdmc+;" vertex="1" parent="1">
          <mxGeometry x="590.55" y="-960.6300000000001" width="59.84" height="74.8" as="geometry" />
        </mxCell>
        <mxCell id="gZGZT8LpR8FbKMcyjmq5-20" value="" style="shape=image;verticalLabelPosition=bottom;labelBackgroundColor=default;verticalAlign=top;aspect=fixed;imageAspect=0;image=data:image/svg+xml,PHN2ZyB4bWxucz0iaHR0cDovL3d3dy53My5vcmcvMjAwMC9zdmciIHZpZXdCb3g9Ii01LjAgLTEwLjAgMTEwLjAgMTM1LjAiIHZlcnNpb249IjEuMSI+JiN4YTsgPHBhdGggZD0ibTYyLjUgMjcuMTk5YzAtOS41LTUuNjAxNi0xNy4xOTktMTIuNS0xNy4xOTlzLTEyLjUgNy42OTkyLTEyLjUgMTcuMTk5YzAgNy42OTkyIDQuNSAxMy44MDEgOS4xOTkyIDE2LjEwMmwtMi44MDA4IDQwLjM5OGMwIDEuNjAxNiAwLjYwMTU2IDMuMTk5MiAxLjY5OTIgNC4zOTg0IDEuMTk5MiAxLjE5OTIgMi42OTkyIDEuODAwOCA0LjMwMDggMS44MDA4IDEuNjAxNiAwIDMuMTk5Mi0wLjYwMTU2IDQuMzAwOC0xLjgwMDggMS4xOTkyLTEuMTk5MiAxLjgwMDgtMi42OTkyIDEuNjk5Mi00LjM5ODRsLTIuODAwOC00MC4zOThjNC45MDIzLTIuMzAwOCA5LjQwMjMtOC40MDIzIDkuNDAyMy0xNi4xMDJ6bS0xMC42MDIgMTQuNjAyYy0wLjEwMTU2IDAtMC4xMDE1NiAwLjEwMTU2LTAuMTk5MjIgMC4xMDE1NmwtMC4xMDE1NiAwLjEwMTU2cy0wLjEwMTU2IDAuMTAxNTYtMC4xMDE1NiAwLjE5OTIyYzAgMC4xMDE1Ni0wLjEwMTU2IDAuMTAxNTYtMC4xMDE1NiAwLjE5OTIydjAuMTk5MjIgMC4xOTkyMmwyLjgwMDggNDFjMCAxLjEwMTYtMC4zOTg0NCAyLjEwMTYtMS4xOTkyIDIuODk4NC0wLjg5NDUzIDAuOTAyMzQtMS44OTQ1IDEuMzAwOC0yLjk5NjEgMS4zMDA4cy0yLjEwMTYtMC4zOTg0NC0yLjg5ODQtMS4xOTkyYy0wLjgwMDc4LTAuODAwNzgtMS4xOTkyLTEuODAwOC0xLjE5OTItMi44OTg0bDIuODAwOC00MS4xMDJ2LTAuMTk5MjItMC4xOTkyMmMwLTAuMTAxNTYtMC4xMDE1Ni0wLjEwMTU2LTAuMTAxNTYtMC4xOTkyMiAwLTAuMTAxNTYtMC4xMDE1Ni0wLjEwMTU2LTAuMTAxNTYtMC4xOTkyMmwtMC4xMDE1Ni0wLjEwMTU2Yy0wLjEwMTU2IDAtMC4xMDE1Ni0wLjEwMTU2LTAuMTk5MjItMC4xMDE1Ni00LjE5OTItMS44MDA4LTguNjk5Mi03LjUtOC42OTkyLTE0LjYwMiAwLTguMzk4NCA0LjY5OTItMTUuMTk5IDEwLjUtMTUuMTk5czEwLjUgNi44MDA4IDEwLjUgMTUuMTk5YzAgNy4xMDE2LTQuMzk4NCAxMi44MDEtOC42MDE2IDE0LjYwMnoiLz4mI3hhOyA8cGF0aCBkPSJtNDcuMTAyIDgzLjg5OGMwIDEuNjAxNiAxLjMwMDggMi44OTg0IDIuODk4NCAyLjg5ODQgMS42MDE2IDAgMi44OTg0LTEuMzAwOCAyLjg5ODQtMi44OTg0IDAtMS42MDE2LTEuMzAwOC0yLjg5ODQtMi44OTg0LTIuODk4NC0xLjYwMTYgMC0yLjg5ODQgMS4zMDA4LTIuODk4NCAyLjg5ODR6bTMuNzk2OSAwYzAgMC41LTAuMzk4NDQgMC44OTg0NC0wLjg5ODQ0IDAuODk4NDRzLTAuODk4NDQtMC4zOTg0NC0wLjg5ODQ0LTAuODk4NDQgMC4zOTg0NC0wLjg5ODQ0IDAuODk4NDQtMC44OTg0NCAwLjg5ODQ0IDAuMzk4NDQgMC44OTg0NCAwLjg5ODQ0eiIvPiYjeGE7IDxwYXRoIGQ9Im00NS4zMDEgMjIuNjAyYzAuMTk5MjItMC41IDAtMS4xMDE2LTAuNS0xLjMwMDhzLTEuMTAxNiAwLTEuMzAwOCAwLjVjLTEuODk4NCA0LjY5OTItMS4zOTg0IDkuNjk5MiAxLjMwMDggMTIuNSAwLjE5OTIyIDAuMTk5MjIgMC41IDAuMzAwNzggMC42OTkyMiAwLjMwMDc4IDAuMzAwNzggMCAwLjUtMC4xMDE1NiAwLjY5OTIyLTAuMzAwNzggMC4zOTg0NC0wLjM5ODQ0IDAuMzk4NDQtMSAwLTEuMzk4NC0yLjA5NzctMi4xMDE2LTIuNS02LjQwMjMtMC44OTg0NC0xMC4zMDF6Ii8+JiN4YTs8dGV4dCBmaWxsPSIjMDAwMDAwIiBmb250LWZhbWlseT0iQXJiZWl0IFJlZ3VsYXIsIEhlbHZldGljYSwgQXJpYWwtVW5pY29kZSwgQXJpYWwsIFNhbnMtc2VyaWYiIGZvbnQtd2VpZ2h0PSJib2xkIiBmb250LXNpemU9IjUuMCIgeT0iMTE3LjUiIHg9IjAuMCI+Q3JlYXRlZCBieSBSYWhtYWQgcm9tYWRvbmk8L3RleHQ+PHRleHQgZmlsbD0iIzAwMDAwMCIgZm9udC1mYW1pbHk9IkFyYmVpdCBSZWd1bGFyLCBIZWx2ZXRpY2EsIEFyaWFsLVVuaWNvZGUsIEFyaWFsLCBTYW5zLXNlcmlmIiBmb250LXdlaWdodD0iYm9sZCIgZm9udC1zaXplPSI1LjAiIHk9IjEyMi41IiB4PSIwLjAiPmZyb20gTm91biBQcm9qZWN0PC90ZXh0Pjwvc3ZnPg==;clipPath=inset(13.67% 29.51% 24.33% 29.51%);" vertex="1" parent="1">
          <mxGeometry x="606.71" y="-881.89" width="27.52" height="51.18" as="geometry" />
        </mxCell>
        <mxCell id="gZGZT8LpR8FbKMcyjmq5-21" value="" style="shape=image;verticalLabelPosition=bottom;labelBackgroundColor=default;verticalAlign=top;aspect=fixed;imageAspect=0;image=data:image/svg+xml,PHN2ZyB4bWxucz0iaHR0cDovL3d3dy53My5vcmcvMjAwMC9zdmciIHZpZXdCb3g9Ii01LjAgLTEwLjAgMTEwLjAgMTM1LjAiIHZlcnNpb249IjEuMSI+JiN4YTsgPHBhdGggZD0ibTU2Ljc1IDIyLjI2Mi0wLjU4OTg0LTE2Ljk2OWMwLTAuNDg4MjgtMC4zOTg0NC0wLjg5MDYyLTAuODkwNjItMC44OTA2Mi0wLjQ4ODI4IDAtMC44OTA2MiAwLjM5ODQ0LTAuODkwNjIgMC44Nzg5MWwtMC41NzAzMSAxNi40M2MtMC4wMTk1MzIgMC4xMDE1Ni0wLjIxODc1IDAuMjg5MDYtMC4yODkwNiAwLjMwMDc4LTAuMDg5ODQzLTAuMDE5NTMxLTAuMjg5MDYtMC4yMTA5NC0wLjMwODU5LTAuMjg5MDZsLTAuNTcwMzEtMTYuNDNjMC0wLjQ4ODI4LTAuMzk4NDQtMC44OTA2Mi0wLjg5MDYyLTAuODkwNjItMC40ODgyOCAwLTAuODkwNjIgMC4zOTg0NC0wLjg5MDYyIDAuODc4OTFsLTAuNTcwMzEgMTYuNDNjLTAuMDE5NTMxIDAuMTAxNTYtMC4yMTg3NSAwLjI4OTA2LTAuMjg5MDYgMC4zMDA3OC0wLjA4OTg0NC0wLjAxOTUzMS0wLjI4OTA2LTAuMjEwOTQtMC4zMDg1OS0wLjI4OTA2bC0wLjU3MDMxLTE2LjQzYzAtMC40ODgyOC0wLjM5ODQ0LTAuODkwNjItMC44OTA2Mi0wLjg5MDYyLTAuNDg4MjggMC0wLjg5MDYyIDAuMzk4NDQtMC44OTA2MiAwLjg3ODkxbC0wLjU3MDMxIDE2LjQzYy0wLjAxOTUzMSAwLjEwMTU2LTAuMjE4NzUgMC4yODkwNi0wLjMwMDc4IDAuMzAwNzgtMC4wODk4NDQtMC4wMTk1MzEtMC4yODEyNS0wLjIxMDk0LTAuMzAwNzgtMC4yODkwNmwtMC41NzAzMS0xNi40M2MwLTAuNDg4MjgtMC4zOTg0NC0wLjg5MDYyLTAuODkwNjItMC44OTA2Mi0wLjQ4ODI4IDAtMC44OTA2MiAwLjM5ODQ0LTAuODkwNjIgMC44Nzg5MWwtMC41ODk4NCAxNi45M3Y4LjI4MTJjMCAwLjA3ODEyNCAwLjAxOTUzMiAwLjE0MDYyIDAuMDMxMjUgMC4xNjAxNiAwLjIzMDQ3IDIuNDI5NyAyIDQuNDYwOSA0LjM3MTEgNS4yODkxaC0wLjAzOTA2MmwtMiA1OC4yNWMwIDAuNzY5NTMgMC41MzkwNiAxLjM5ODQgMS4xOTkyIDEuMzk4NGg2LjM3MTFjMC42NjAxNiAwIDEuMTk5Mi0wLjYyODkxIDEuMTkxNC0xLjQxMDJsLTEuOTg4My01OC4yNWMyLjM1MTYtMC44MjgxMyA0LjEwOTQtMi44NTE2IDQuMzI4MS01LjI1IDAuMDExNzE5LTAuMDM5MDYzIDAuMDMxMjUtMC4xMDkzOCAwLjAzMTI1LTAuMTc5Njl2LTguMjE4OHptLTAuNjAxNTYgOC4yNTc4LTAuMDE5NTMyIDAuMDg5ODQ0Yy0wLjIxODc1IDIuMzc4OS0yLjEwMTYgNC4zMzk4LTQuNTMxMiA0Ljk0OTJ2MC4wNTA3ODEgMC4xMDE1NiAwLjAxOTUzMSAwLjE3MTg4IDAuMDM5MDYyYzAgMC4wNTA3ODIgMC4wMTk1MzIgMC4xMDE1NiAwLjAxOTUzMiAwLjE0ODQ0djAuMDU4NTk0bDEuOTgwNSA1OC4wMzljMCAwLjM1OTM4LTAuMjEwOTQgMC42MDE1Ni0wLjM5ODQ0IDAuNjAxNTZoLTYuMzcxMWMtMC4xOTE0MSAwLTAuMzk4NDQtMC4yNS0wLjM5ODQ0LTAuNTg5ODRsMS45ODgzLTU4LjA1MWgwLjAxOTUzMXYtMC4wMzkwNjNjLTAuMDE5NTMxLTAuMDcwMzEzLTAuMDExNzE5LTAuMTQwNjIgMC0wLjE5OTIyIDAtMC4xMDkzOCAwLjAxOTUzMS0wLjIxODc1IDAtMC4zMjgxMnYtMC4wNTA3ODFjLTIuNDQxNC0wLjYwOTM4LTQuMzI4MS0yLjU1MDgtNC41NTg2LTQuOTgwNWwtMC4wMTk1MzEtOC4xOTkyczAuMDExNzE5LTAuMDUwNzgxIDAuMDE5NTMxLTAuMDc4MTI0di0wLjA1MDc4Mi0wLjA1ODU5NGwwLjU4OTg0LTE2Ljg3OWMwLTAuMTYwMTYgMC4xMjg5MS0wLjMwMDc4IDAuMzAwNzgtMC4zMDA3OHMwLjMwMDc4IDAuMTI4OTEgMC4zMDA3OCAwLjMwODU5bDAuNTcwMzEgMTYuMzUyIDAuMDU4NTk0IDAuMzIwMzFjMC4xNDA2MiAwLjMyMDMxIDAuNTE5NTMgMC42Mjg5MSAwLjgyMDMxIDAuNjI4OTFzMC43MTA5NC0wLjMyMDMxIDAuODUxNTYtMC42NDA2MmwwLjA1ODU5NC0wLjMwMDc4IDAuNTcwMzEtMTYuMzU5YzAtMC4xNjAxNiAwLjEyODkxLTAuMzAwNzggMC4zMDA3OC0wLjMwMDc4czAuMzAwNzggMC4xMjg5MSAwLjMwMDc4IDAuMzA4NTlsMC41NzAzMSAxNi4zNTIgMC4wNTg1OTQgMC4zMjAzMWMwLjE0MDYyIDAuMzIwMzEgMC41MTk1MyAwLjYyODkxIDAuODI4MTIgMC42Mjg5MXMwLjY5OTIyLTAuMzIwMzEgMC44Mzk4NC0wLjY0MDYybDAuMDU4NTkzLTAuMzAwNzggMC41NzAzMS0xNi4zNTljMC0wLjE2MDE2IDAuMTI4OTEtMC4zMDA3OCAwLjMwMDc4LTAuMzAwNzhzMC4zMDA3OCAwLjEyODkxIDAuMzAwNzggMC4zMDg1OWwwLjU3MDMxIDE2LjM1MiAwLjA1ODU5MyAwLjMyMDMxYzAuMTQwNjMgMC4zMjAzMSAwLjUxOTUzIDAuNjI4OTEgMC44MjgxMyAwLjYyODkxIDAuMzA4NTkgMCAwLjY5OTIyLTAuMzIwMzEgMC44Mzk4NC0wLjY0MDYybDAuMDU4NTk0LTAuMzAwNzggMC41NzAzMS0xNi4zNTljMC0wLjE2MDE2IDAuMTI4OTEtMC4zMDA3OCAwLjMwMDc4LTAuMzAwNzhzMC4zMDA3OCAwLjEyODkxIDAuMzAwNzggMC4zMDg1OWwwLjU4OTg0IDE2Ljg1Mi0wLjAxOTUzMiAwLjA3MDMxMnYwLjA1ODU5NHMwLjAxOTUzMiAwLjA1MDc4MSAwLjAxOTUzMiAwLjAzMTI1djguMjEwOXoiLz4mI3hhOzx0ZXh0IGZpbGw9IiMwMDAwMDAiIGZvbnQtZmFtaWx5PSJBcmJlaXQgUmVndWxhciwgSGVsdmV0aWNhLCBBcmlhbC1Vbmljb2RlLCBBcmlhbCwgU2Fucy1zZXJpZiIgZm9udC13ZWlnaHQ9ImJvbGQiIGZvbnQtc2l6ZT0iNS4wIiB5PSIxMTcuNSIgeD0iMC4wIj5DcmVhdGVkIGJ5IG5vb2RsZSByZXNlYXJjaDwvdGV4dD48dGV4dCBmaWxsPSIjMDAwMDAwIiBmb250LWZhbWlseT0iQXJiZWl0IFJlZ3VsYXIsIEhlbHZldGljYSwgQXJpYWwtVW5pY29kZSwgQXJpYWwsIFNhbnMtc2VyaWYiIGZvbnQtd2VpZ2h0PSJib2xkIiBmb250LXNpemU9IjUuMCIgeT0iMTIyLjUiIHg9IjAuMCI+ZnJvbSBOb3VuIFByb2plY3Q8L3RleHQ+PC9zdmc+;clipPath=inset(7.67% 32.79% 19.67% 33.61%);" vertex="1" parent="1">
          <mxGeometry x="641.73" y="-882.46" width="19.68" height="52.33" as="geometry" />
        </mxCell>
        <mxCell id="gZGZT8LpR8FbKMcyjmq5-22" value="forno" style="shape=image;verticalLabelPosition=bottom;labelBackgroundColor=default;verticalAlign=top;aspect=fixed;imageAspect=0;image=data:image/svg+xml,PHN2ZyB4bWxucz0iaHR0cDovL3d3dy53My5vcmcvMjAwMC9zdmciIHZpZXdCb3g9Ii01LjAgLTEwLjAgMTEwLjAgMTM1LjAiIHZlcnNpb249IjEuMSI+JiN4YTsgPHBhdGggZD0ibTkxLjkyMiAxMi41aC04My44NDRjLTIuNjI4OSAwLTQuNzYxNyAyLjE0MDYtNC43NjE3IDQuNzYxN3Y2MS40MjJjMCAyLjYyODkgMi4xNDA2IDQuNzYxNyA0Ljc2MTcgNC43NjE3aDAuODcxMDl2MS43NjE3YzAgMS4yNjE3IDEuMDMxMiAyLjI4OTEgMi4yODkxIDIuMjg5MWg2LjQyOTdjMS4yNjE3IDAgMi4yODkxLTEuMDMxMiAyLjI4OTEtMi4yODkxdi0xLjc2MTdoNjAuMTA5djEuNzYxN2MwIDEuMjYxNyAxLjAzMTIgMi4yODkxIDIuMjg5MSAyLjI4OTFoNi40Mjk3YzEuMjYxNyAwIDIuMjg5MS0xLjAzMTIgMi4yODkxLTIuMjg5MXYtMS43NjE3aDAuODcxMDljMi42Mjg5IDAgNC43NjE3LTIuMTQwNiA0Ljc2MTctNC43NjE3bDAuMDAzOTA3LTYxLjQxNGMtMC4wMTk1MzItMi42Mjg5LTIuMTYwMi00Ljc2OTUtNC43ODkxLTQuNzY5NXptLTgzLjg0NCAxLjkxMDJoODMuODUyYzEuNTc4MSAwIDIuODU5NCAxLjI4MTIgMi44NTk0IDIuODU5NHYxMC40OGgtODkuNTd2LTEwLjQ4YzAtMS41NzgxIDEuMjgxMi0yLjg1OTQgMi44NTk0LTIuODU5NHptOS45NjA5IDcwLjgwMWMwIDAuMjEwOTQtMC4xNzE4NyAwLjM3ODkxLTAuMzc4OTEgMC4zNzg5MWgtNi40Mjk3Yy0wLjIxMDk0IDAtMC4zNzg5MS0wLjE3MTg4LTAuMzc4OTEtMC4zNzg5MXYtMS43NjE3aDcuMTkxNHptNzEuMTA5IDBjMCAwLjIxMDk0LTAuMTcxODggMC4zNzg5MS0wLjM3ODkxIDAuMzc4OTFoLTYuNDI5N2MtMC4yMTA5NCAwLTAuMzc4OTEtMC4xNzE4OC0wLjM3ODkxLTAuMzc4OTF2LTEuNzYxN2g3LjE5MTR6bTIuNzczNC0zLjY2MDJoLTgzLjg0NGMtMS41NzgxIDAtMi44NTk0LTEuMjgxMi0yLjg1OTQtMi44NTk0di00OS4wNDNoODkuNTU5djQ5LjAzOWMwLjAwMzkwNiAxLjU4Mi0xLjI3NzMgMi44NjMzLTIuODU1NSAyLjg2MzN6bS01Ny4yNjItNDMuODc5aDMwLjY3MmMxLjYwOTQgMCAyLjkyMTktMS4zMDg2IDIuOTIxOS0yLjkyMTkgMC0xLjYwOTQtMS4zMDg2LTIuOTIxOS0yLjkyMTktMi45MjE5aC0zMC42NzJjLTEuNjA5NCAwLTIuOTIxOSAxLjMwODYtMi45MjE5IDIuOTIxOSAwLjAxMTcxOSAxLjYwOTQgMS4zMTI1IDIuOTIxOSAyLjkyMTkgMi45MjE5em0wLTMuOTQxNGgzMC42NzJjMC41NTg1OSAwIDEuMDExNyAwLjQ0OTIyIDEuMDExNyAxLjAxMTcgMCAwLjU1ODU5LTAuNDQ5MjIgMS4wMTE3LTEuMDExNyAxLjAxMTdsLTMwLjY3Mi0wLjAwMzkwNmMtMC41NTg1OSAwLTEuMDExNy0wLjQ0OTIyLTEuMDExNy0xLjAxMTcgMC0wLjU0Njg4IDAuNDYwOTQtMS4wMDc4IDEuMDExNy0xLjAwNzh6bTI0Ljg3MS04Ljg1MTZjMi4xMDE2IDAgMy44MDA4LTEuNjk5MiAzLjgwMDgtMy44MDA4cy0xLjY5OTItMy44MDA4LTMuODAwOC0zLjgwMDgtMy44MDA4IDEuNjk5Mi0zLjgwMDggMy44MDA4YzAgMi4wOTM4IDEuNjk5MiAzLjgwMDggMy44MDA4IDMuODAwOHptMC01LjY5OTJjMS4wMzkxIDAgMS44OTA2IDAuODUxNTYgMS44OTA2IDEuODkwNiAwIDEuMDM5MS0wLjg1MTU2IDEuODkwNi0xLjg5MDYgMS44OTA2cy0xLjg5MDYtMC44NTE1Ni0xLjg5MDYtMS44OTA2Yy0wLjAxMTcxOS0xLjAzOTEgMC44Mzk4NC0xLjg5MDYgMS44OTA2LTEuODkwNnptMTAuOTU3IDUuNjk5MmMyLjEwMTYgMCAzLjgwMDgtMS42OTkyIDMuODAwOC0zLjgwMDhzLTEuNjk5Mi0zLjgwMDgtMy44MDA4LTMuODAwOGMtMi4xMDE2IDAtMy44MDA4IDEuNjk5Mi0zLjgwMDggMy44MDA4IDAuMDAzOTA2IDIuMDkzOCAxLjcwMzEgMy44MDA4IDMuODAwOCAzLjgwMDh6bTAtNS42OTkyYzEuMDM5MSAwIDEuODkwNiAwLjg1MTU2IDEuODkwNiAxLjg5MDYgMCAxLjAzOTEtMC44NTE1NiAxLjg5MDYtMS44OTA2IDEuODkwNi0xLjAzOTEgMC0xLjg5MDYtMC44NTE1Ni0xLjg5MDYtMS44OTA2LTAuMDA3ODEyLTEuMDM5MSAwLjg0Mzc1LTEuODkwNiAxLjg5MDYtMS44OTA2em0xMC45NjEgNS42OTkyYzIuMTAxNiAwIDMuODAwOC0xLjY5OTIgMy44MDA4LTMuODAwOHMtMS42OTkyLTMuODAwOC0zLjgwMDgtMy44MDA4Yy0yLjEwMTYgMC0zLjgwMDggMS42OTkyLTMuODAwOCAzLjgwMDggMCAyLjA5MzggMS43MDMxIDMuODAwOCAzLjgwMDggMy44MDA4em0wLTUuNjk5MmMxLjAzOTEgMCAxLjg5MDYgMC44NTE1NiAxLjg5MDYgMS44OTA2IDAgMS4wMzkxLTAuODUxNTYgMS44OTA2LTEuODkwNiAxLjg5MDYtMS4wMzkxIDAtMS44OTA2LTAuODUxNTYtMS44OTA2LTEuODkwNiAwLTEuMDM5MSAwLjg1MTU2LTEuODkwNiAxLjg5MDYtMS44OTA2em0tNjQuMzAxIDYuMDgyaDExLjQyMmMxLjMyMDMgMCAyLjM5ODQtMS4wNzgxIDIuMzk4NC0yLjM5ODR2LTMuNTYyNWMwLTEuMzIwMy0xLjA3ODEtMi4zOTg0LTIuMzk4NC0yLjM5ODRsLTExLjQyMi0wLjAwMzkwNmMtMS4zMjAzIDAtMi4zOTg0IDEuMDc4MS0yLjM5ODQgMi4zOTg0djMuNTU4NmMwIDEuMzI0MiAxLjA3ODEgMi40MDYyIDIuMzk4NCAyLjQwNjJ6bS0wLjQ4ODI4LTUuOTYwOWMwLTAuMjY5NTMgMC4yMTg3NS0wLjUgMC41LTAuNWgxMS40MjJjMC4yNjk1MyAwIDAuNSAwLjIxODc1IDAuNSAwLjV2My41NTg2YzAgMC4yNjk1My0wLjIxODc1IDAuNS0wLjUgMC41aC0xMS40MzRjLTAuMjY5NTMgMC0wLjUtMC4yMTg3NS0wLjUtMC41di0zLjU1ODZ6bTQ0LjQ4OCAzMi42MjljMS4zNzg5IDIuMDExNyAxLjM3ODkgNC40MTAyIDAgNi40MTAyLTAuMTc5NjkgMC4yNjk1My0wLjQ4MDQ3IDAuNDEwMTYtMC43ODkwNiAwLjQxMDE2LTAuMTkxNDEgMC0wLjM3MTA5LTAuMDUwNzgxLTAuNTM5MDYtMC4xNzE4OC0wLjQyOTY5LTAuMzAwNzgtMC41MzkwNi0wLjg5MDYyLTAuMjM4MjgtMS4zMjAzIDAuOTQxNDEtMS4zNzExIDAuOTQxNDEtMi44Nzg5IDAtNC4yNS0xLjQyOTctMi4wNzgxLTEuNDQ5Mi00LjQ0MTQtMC4wMzkwNjItNi40ODA1IDAuMzAwNzgtMC40Mjk2OSAwLjg5MDYyLTAuNTM5MDYgMS4zMjgxLTAuMjM4MjggMC40Mjk2OSAwLjMwMDc4IDAuNTM5MDYgMC44OTA2MyAwLjIzODI4IDEuMzI4MS0wLjk2MDk0IDEuMzk0NS0wLjk0OTIyIDIuODgyOCAwLjAzOTA2MyA0LjMxMjV6bS0xMC4zNCAwYzEuMzc4OSAyLjAxMTcgMS4zNzg5IDQuNDEwMiAwIDYuNDEwMi0wLjE3OTY5IDAuMjY5NTMtMC40ODA0NyAwLjQxMDE2LTAuNzg5MDYgMC40MTAxNi0wLjE5MTQxIDAtMC4zNzEwOS0wLjA1MDc4MS0wLjUzOTA2LTAuMTcxODgtMC40Mjk2OS0wLjMwMDc4LTAuNTM5MDYtMC44OTA2Mi0wLjIzODI4LTEuMzIwMyAwLjk0MTQxLTEuMzcxMSAwLjk0MTQxLTIuODc4OSAwLTQuMjUtMS40Mjk3LTIuMDc4MS0xLjQ0OTItNC40NDE0LTAuMDM5MDYzLTYuNDgwNSAwLjMwMDc4LTAuNDI5NjkgMC44OTA2Mi0wLjUzOTA2IDEuMzI4MS0wLjIzODI4IDAuNDI5NjkgMC4zMDA3OCAwLjUzOTA2IDAuODkwNjMgMC4yMzgyOCAxLjMyODEtMC45NjA5NCAxLjM5NDUtMC45NDkyMiAyLjg4MjggMC4wMzkwNjMgNC4zMTI1em0tMTAuMzQgMGMxLjM3ODkgMi4wMTE3IDEuMzc4OSA0LjQxMDIgMCA2LjQxMDItMC4xNzk2OSAwLjI2OTUzLTAuNDgwNDcgMC40MTAxNi0wLjc4OTA2IDAuNDEwMTYtMC4xOTE0MSAwLTAuMzcxMDktMC4wNTA3ODEtMC41MzkwNi0wLjE3MTg4LTAuNDI5NjktMC4zMDA3OC0wLjUzOTA2LTAuODkwNjItMC4yMzgyOC0xLjMyMDMgMC45NDE0MS0xLjM3MTEgMC45NDE0MS0yLjg3ODkgMC00LjI1LTEuNDI5Ny0yLjA3ODEtMS40NDkyLTQuNDQxNC0wLjAzOTA2My02LjQ4MDUgMC4zMDA3OC0wLjQyOTY5IDAuODkwNjItMC41MzkwNiAxLjMyODEtMC4yMzgyOCAwLjQyOTY5IDAuMzAwNzggMC41MzkwNiAwLjg5MDYzIDAuMjM4MjggMS4zMjgxLTAuOTYwOTQgMS4zOTQ1LTAuOTQ5MjIgMi44ODI4IDAuMDM5MDYyIDQuMzEyNXptNDEuOTIyLTEyLjA5aC02NC43ODFjLTEuNTc4MSAwLTIuODU5NCAxLjI4MTItMi44NTk0IDIuODU5NHYzMy44OTFjMCAxLjU3ODEgMS4yODEyIDIuODU5NCAyLjg1OTQgMi44NTk0aDY0Ljc4MWMxLjU3ODEgMCAyLjg1OTQtMS4yODEyIDIuODU5NC0yLjg1OTR2LTMzLjg5MWMwLTEuNTcwMy0xLjI4MTItMi44NTk0LTIuODU5NC0yLjg1OTR6bS01Ny4xOCAzNi44NzljMC0wLjQ0OTIyIDAuMzcxMDktMC44MjAzMSAwLjgyMDMxLTAuODIwMzFoNDcuOTQ5YzAuNDQ5MjIgMCAwLjgyMDMxIDAuMzcxMDkgMC44MjAzMSAwLjgyMDMxIDAgMC40NDE0MS0wLjM1OTM4IDAuODA4NTktMC44MDA3OCAwLjgyMDMxaC00OGMtMC40NDE0MS0wLjAwNzgxMi0wLjc4OTA2LTAuMzc4OTEtMC43ODkwNi0wLjgyMDMxem0xNi40MTgtMTEuNjI5YzAuMjgxMjUtMC4wMzEyNSAwLjU3MDMxLTAuMDUwNzgyIDAuODU5MzgtMC4wNTA3ODJoMC43MTg3NXYzLjM1OTRjMCAwLjQyOTY5LTAuMzUxNTYgMC43ODkwNi0wLjc4OTA2IDAuNzg5MDYtMC40NDE0MSAwLTAuNzg5MDYtMC4zNTE1Ni0wLjc4OTA2LTAuNzg5MDZ6bTAuNzgxMjUgNi4wMTE3YzEuNDgwNSAwIDIuNjkxNC0xLjIxMDkgMi42OTE0LTIuNjkxNHYtMy4zNTk0aDIuMTk5MnYzLjM1OTRjMCAxLjQ4MDUgMS4yMTA5IDIuNjkxNCAyLjY5MTQgMi42OTE0IDEuNDgwNSAwIDIuNjkxNC0xLjIxMDkgMi42OTE0LTIuNjkxNHYtMy4zNTk0aDIuMTk5MnYzLjM1OTRjMCAxLjQ4MDUgMS4yMTA5IDIuNjkxNCAyLjY5MTQgMi42OTE0czIuNjkxNC0xLjIxMDkgMi42OTE0LTIuNjkxNHYtMi44Nzg5YzMuMTcxOSAxLjE0MDYgNS40NDE0IDQuMTYwMiA1LjQ0MTQgNy43MTA5bC0wLjAwNzgxMiAwLjc1NzgxaC0zMS40MTh2LTAuNzYxNzJjMC0zLjU1MDggMi4yNjk1LTYuNTc4MSA1LjQ0MTQtNy43MTA5djIuODc4OWMtMC4wMDM5MDYgMS40ODQ0IDEuMjA3IDIuNjk1MyAyLjY4NzUgMi42OTUzem02LjgwMDgtNi4wNjI1aDEuNTcwM3YzLjM1OTRjMCAwLjQyOTY5LTAuMzUxNTYgMC43ODkwNi0wLjc4OTA2IDAuNzg5MDYtMC40Mjk2OSAwLTAuNzg5MDYtMC4zNTE1Ni0wLjc4OTA2LTAuNzg5MDZsLTAuMDAzOTA2LTMuMzU5NHptNy41ODk4IDBoMC43MTg3NWMwLjI4OTA2IDAgMC41NzAzMSAwLjAxOTUzMiAwLjg1OTM4IDAuMDUwNzgydjMuMzIwM2MwIDAuNDI5NjktMC4zNTE1NiAwLjc4OTA2LTAuNzg5MDYgMC43ODkwNi0wLjQ0MTQxIDAtMC43ODkwNi0wLjM1MTU2LTAuNzg5MDYtMC43ODkwNnptMjYuNTM5IDExLjU1MWMwIDAuNTMxMjUtMC40Mjk2OSAwLjk0OTIyLTAuOTQ5MjIgMC45NDkyMmgtNS44MjgxYzAuMDc4MTI1LTAuMjYxNzIgMC4xNDA2Mi0wLjUzMTI1IDAuMTQwNjItMC44MjAzMSAwLTEuNS0xLjIxODgtMi43MTg4LTIuNzE4OC0yLjcxODhoLTYuMzUxNnYtMC43NjE3MmMwLTUuNTcwMy00LjUzMTItMTAuMTA5LTEwLjEwOS0xMC4xMDloLTE1LjA0M2MtNS41NzAzIDAtMTAuMTA5IDQuNTMxMi0xMC4xMDkgMTAuMTA5djAuNzYxNzJoLTYuMzUxNmMtMS41IDAtMi43MTg4IDEuMjE4OC0yLjcxODggMi43MTg4IDAgMC4yODkwNiAwLjA1ODU5NCAwLjU1ODU5IDAuMTQwNjIgMC44MjAzMWgtNS44MjgxYy0wLjUzMTI1IDAtMC45NDkyMi0wLjQyOTY5LTAuOTQ5MjItMC45NDkyMmwtMC4wMDM5MDYtMzMuODkxYzAtMC41MzEyNSAwLjQyOTY5LTAuOTQ5MjIgMC45NDkyMi0wLjk0OTIyaDY0Ljc4MWMwLjUzMTI1IDAgMC45NDkyMiAwLjQyOTY5IDAuOTQ5MjIgMC45NDkyMnoiLz4mI3hhOzx0ZXh0IGZpbGw9IiMwMDAwMDAiIGZvbnQtZmFtaWx5PSJBcmJlaXQgUmVndWxhciwgSGVsdmV0aWNhLCBBcmlhbC1Vbmljb2RlLCBBcmlhbCwgU2Fucy1zZXJpZiIgZm9udC13ZWlnaHQ9ImJvbGQiIGZvbnQtc2l6ZT0iNS4wIiB5PSIxMTcuNSIgeD0iMC4wIj5DcmVhdGVkIGJ5IEhhbmJhaTwvdGV4dD48dGV4dCBmaWxsPSIjMDAwMDAwIiBmb250LWZhbWlseT0iQXJiZWl0IFJlZ3VsYXIsIEhlbHZldGljYSwgQXJpYWwtVW5pY29kZSwgQXJpYWwsIFNhbnMtc2VyaWYiIGZvbnQtd2VpZ2h0PSJib2xkIiBmb250LXNpemU9IjUuMCIgeT0iMTIyLjUiIHg9IjAuMCI+ZnJvbSBOb3VuIFByb2plY3Q8L3RleHQ+PC9zdmc+;clipPath=inset(13.67% 4.1% 25% 3.28%);" vertex="1" parent="1">
          <mxGeometry x="608.02" y="-791.34" width="53.39" height="43.47" as="geometry" />
        </mxCell>
      </root>
    </mxGraphModel>
  </diagram>
</mxfile>
